<svg xmlns="http://www.w3.org/2000/svg" width="506" height="294" viewBox="0 0 506 294" version="1.1"><path d="M 356.663 118.626 C 358.257 129.320, 367.745 133.213, 380.744 128.508 C 384.698 127.076, 386.665 126.846, 388.744 127.573 C 392.692 128.953, 393.011 133.646, 389.444 137.884 C 386.451 141.442, 371.548 149, 367.527 149 C 363.486 149, 358.663 151.423, 355.703 154.941 C 352.160 159.152, 352.261 161.567, 356.063 163.533 C 358.937 165.019, 359.401 164.984, 363.556 162.973 C 367.542 161.043, 371.949 156.557, 372.032 154.346 C 372.049 153.881, 376.146 151.025, 381.137 148 C 391.338 141.817, 395 137.548, 395 131.840 C 395 129.039, 394.362 127.644, 392.365 126.073 C 389.012 123.435, 386.070 123.457, 380.195 126.163 C 374.020 129.007, 367.010 129.142, 363.449 126.484 C 361.963 125.376, 360.017 122.601, 359.124 120.317 C 356.901 114.635, 355.973 113.997, 356.663 118.626 M 248.250 245.716 C 249.762 245.945, 252.238 245.945, 253.750 245.716 C 255.262 245.487, 254.025 245.300, 251 245.300 C 247.975 245.300, 246.738 245.487, 248.250 245.716" stroke="none" fill="#ffffff" fill-rule="evenodd"/><path d="M 381.236 71.019 C 370.231 73.495, 361.432 86.330, 360.273 101.593 C 359.286 114.608, 364.568 124.027, 372.827 123.978 C 380.015 123.935, 389.660 117.426, 393.479 110.041 C 395.147 106.816, 394.956 106.547, 390.279 105.545 C 387.410 104.929, 386.637 105.298, 383.184 108.927 C 380.045 112.227, 378.623 113, 375.690 113 C 371.030 113, 369.765 110.733, 369.813 102.468 C 369.855 95.179, 372.939 86.979, 376.774 83.963 C 380.371 81.134, 386.056 81.366, 388.965 84.462 L 391.278 86.925 395.634 83.796 L 399.990 80.668 398.210 77.619 C 395.124 72.337, 387.886 69.522, 381.236 71.019 M 331.255 71.732 C 328.562 71.975, 326.692 72.734, 326.142 73.807 C 323.505 78.957, 311.750 130.967, 312.931 132.263 C 313.886 133.311, 320.216 131.099, 321.750 129.181 C 322.438 128.321, 323 126.409, 323 124.931 C 323 121.375, 324.666 120.161, 330.043 119.799 C 334.445 119.504, 334.506 119.543, 335.012 123 C 335.550 126.676, 336.435 126.961, 342.750 125.487 C 345.460 124.854, 345.495 124.127, 343.526 109.196 C 342.715 103.049, 341.747 91.940, 341.374 84.510 L 340.696 71 338.098 71.175 C 336.669 71.271, 333.590 71.522, 331.255 71.732 M 414.678 79.634 C 412.321 87.725, 409.422 101.038, 408.066 110 C 407.442 114.125, 406.701 118.963, 406.420 120.750 C 405.931 123.865, 406.047 123.999, 409.205 123.986 C 416.144 123.958, 416.553 123.534, 417.953 114.911 C 418.663 110.542, 419.632 106.728, 420.106 106.434 C 421.254 105.725, 424.744 111.505, 426.184 116.500 C 426.818 118.700, 427.671 120.887, 428.079 121.360 C 428.740 122.128, 439 119.400, 439 118.457 C 439 117.226, 434.315 105.855, 432.372 102.369 L 430.068 98.238 439.284 88.496 C 444.353 83.138, 448.633 78.411, 448.795 77.991 C 449.127 77.133, 443.566 74.988, 441.101 75.022 C 440.220 75.035, 435.900 79.058, 431.500 83.963 C 427.100 88.869, 423.366 92.506, 423.202 92.047 C 423.038 91.588, 423.782 87.677, 424.856 83.356 C 425.929 79.035, 426.687 75.374, 426.539 75.219 C 426.392 75.064, 424.047 74.675, 421.329 74.353 L 416.387 73.767 414.678 79.634 M 283.500 75.634 C 282.400 75.912, 277.785 77.249, 273.244 78.604 L 264.987 81.068 265.577 85.284 C 266.417 91.286, 266.750 92.033, 268.322 91.430 C 269.499 90.978, 269.639 93.934, 269.213 110.194 C 268.854 123.874, 268.344 129.786, 267.460 130.497 C 266.775 131.049, 266.003 133.901, 265.746 136.835 L 265.277 142.171 268.889 141.522 C 288.499 138.003, 299.927 128.937, 300.741 116.255 C 301.110 110.504, 300.805 109.665, 295.895 102.949 C 294.993 101.715, 295.410 100.477, 297.932 96.899 C 300.210 93.666, 301.263 90.850, 301.671 86.895 C 302.173 82.033, 301.951 81.055, 299.771 78.520 C 297.640 76.043, 296.492 75.614, 291.401 75.389 C 288.155 75.246, 284.600 75.356, 283.500 75.634 M 233.285 85.888 C 225.466 88.478, 218.817 90.849, 218.509 91.157 C 218.201 91.465, 218.249 94.266, 218.615 97.382 C 219.174 102.134, 219.558 102.958, 221.004 102.499 C 222.550 102.008, 222.795 103.259, 223.397 114.726 C 224.197 129.949, 225.949 152.031, 226.487 153.662 C 226.736 154.417, 229.610 153.506, 234.685 151.063 C 238.983 148.995, 244.652 146.492, 247.283 145.503 L 252.066 143.703 251.400 137.602 C 251.034 134.246, 250.679 131.422, 250.611 131.327 C 250.543 131.231, 247.139 132.456, 243.048 134.048 C 238.956 135.639, 235.458 136.791, 235.273 136.607 C 235.089 136.422, 234.665 133.968, 234.332 131.153 C 233.572 124.741, 234.344 123.774, 242.568 120.825 L 249 118.518 248.985 113.509 C 248.961 105.771, 248.344 105.378, 240.932 108.372 C 237.448 109.779, 234.378 110.712, 234.111 110.444 C 233.843 110.177, 233.433 107.312, 233.199 104.078 L 232.774 98.198 241.387 95.393 L 250 92.588 250.150 88.294 C 250.233 85.932, 250.345 83.444, 250.400 82.764 C 250.577 80.576, 247.777 81.087, 233.285 85.888 M 278.500 87.713 C 275.317 88.479, 274.615 89.743, 276.960 90.487 C 278.944 91.117, 279.067 91.619, 278.446 96.587 C 277.882 101.101, 278.027 102, 279.320 102 C 282.168 102, 286.052 100.047, 288.538 97.364 C 291.412 94.263, 291.926 88.569, 289.418 87.607 C 287.639 86.924, 281.533 86.983, 278.500 87.713 M 328.561 98.261 C 326.981 104.179, 325.937 109.270, 326.242 109.575 C 326.546 109.880, 328.433 109.822, 330.434 109.446 L 334.073 108.764 333.398 102.632 C 333.027 99.259, 332.434 94.475, 332.079 92 L 331.435 87.500 328.561 98.261 M 180.935 100.290 C 173.135 102.949, 169 105.475, 169 107.580 C 169 108.424, 169.505 111.121, 170.123 113.573 C 170.932 116.786, 171.700 117.957, 172.873 117.766 C 174.282 117.536, 174.600 119.376, 175.249 131.500 C 175.954 144.681, 178.673 173.006, 179.293 173.626 C 179.449 173.782, 181.490 172.768, 183.830 171.373 C 186.768 169.621, 187.938 168.321, 187.613 167.169 C 187.355 166.251, 186.834 161.729, 186.456 157.121 L 185.769 148.742 189.929 151.080 C 193.478 153.075, 198.829 159.380, 200.335 163.342 C 200.588 164.006, 202.604 162.713, 205.064 160.309 L 209.353 156.117 206.455 151.935 C 204.861 149.635, 201.663 146.307, 199.347 144.539 L 195.137 141.324 198.065 136.912 C 206.540 124.140, 208.201 105.450, 201.341 100.054 C 197.804 97.271, 189.508 97.367, 180.935 100.290 M 183.706 112.676 C 180.037 114.197, 179.979 114.297, 181.956 115.681 C 183.644 116.864, 184.021 118.279, 184.118 123.807 C 184.183 127.488, 184.521 131.804, 184.868 133.398 L 185.500 136.296 188.892 133.439 C 195.102 128.210, 197.873 118.119, 194.443 113.223 C 192.600 110.591, 189.157 110.416, 183.706 112.676 M 279.313 111.786 C 278.659 112.201, 277.808 116.044, 277.420 120.325 L 276.714 128.110 279.607 127.415 C 284.039 126.350, 287.716 124.243, 289.439 121.783 C 291.292 119.138, 291.489 113.889, 289.800 112.200 C 288.478 110.878, 281.192 110.591, 279.313 111.786 M 138.250 115.501 L 133 117.887 133 140.174 C 133 159.395, 134.633 194.782, 135.570 195.857 C 135.741 196.054, 137.699 194.929, 139.921 193.357 L 143.960 190.500 143.362 184.443 C 142.800 178.762, 142.920 178.283, 145.277 176.738 C 146.660 175.832, 148.957 174.798, 150.381 174.441 C 153.042 173.773, 153.029 173.756, 155.535 180.845 C 155.906 181.896, 156.720 181.743, 159.255 180.146 C 161.040 179.022, 162.890 177.496, 163.366 176.755 C 163.915 175.901, 162.873 171.219, 160.516 163.954 C 154.878 146.574, 149.207 126.929, 146.603 115.750 C 145.832 112.444, 145.030 112.420, 138.250 115.501 M 395.232 132 C 395.232 133.925, 395.438 134.713, 395.689 133.750 C 395.941 132.787, 395.941 131.213, 395.689 130.250 C 395.438 129.287, 395.232 130.075, 395.232 132 M 92.473 134.935 C 88.167 136.853, 68 151.633, 68 152.871 C 68 153.278, 69.272 157.101, 70.827 161.366 C 73.306 168.164, 73.821 168.921, 75.002 167.497 C 76.650 165.512, 77.416 166.626, 78.443 172.500 C 78.828 174.700, 81.397 187.075, 84.152 200 C 87.997 218.039, 88.907 223.907, 88.071 225.251 C 86.932 227.082, 88.485 240.606, 90.033 242.342 C 91.052 243.484, 104.028 234.817, 109.982 229.017 C 126.469 212.958, 127.436 183.962, 111.799 174.500 C 110.270 173.574, 110.286 172.980, 112.016 166.500 C 115.352 154.004, 114.122 141.483, 109.021 136.022 C 106.603 133.434, 105.502 133.010, 101.349 133.071 C 98.682 133.109, 94.688 133.948, 92.473 134.935 M 141.523 138.315 C 140.774 140.042, 141.725 163.049, 142.580 163.911 C 142.805 164.137, 144.493 163.511, 146.332 162.521 L 149.675 160.720 146.447 150.548 C 144.672 144.954, 143.014 139.504, 142.764 138.438 C 142.334 136.604, 142.267 136.598, 141.523 138.315 M 87.905 157.155 L 81.500 161.310 84.500 162.292 C 86.150 162.832, 87.625 163.374, 87.777 163.498 C 87.930 163.621, 88.655 167.171, 89.388 171.388 C 90.121 175.604, 90.971 179.305, 91.277 179.610 C 92.262 180.595, 99.902 172.169, 101.556 168.273 C 103.328 164.101, 103.040 156.958, 101 154.501 C 98.884 151.951, 94.584 152.822, 87.905 157.155 M 418 167.101 C 411.675 167.551, 396.600 168.624, 384.500 169.485 C 372.400 170.347, 355.863 171.490, 347.750 172.026 C 306.205 174.770, 296.848 175.418, 282.500 176.547 C 279.200 176.806, 265.925 177.685, 253 178.499 C 240.075 179.314, 226.629 180.219, 223.120 180.511 C 219.612 180.804, 209.937 181.488, 201.620 182.033 C 193.304 182.577, 179.975 183.526, 172 184.142 C 164.025 184.758, 156.375 185.214, 155 185.155 C 149.721 184.930, 148 185.872, 148 188.987 C 148 191.380, 146.994 192.694, 142.659 195.968 C 137.229 200.067, 133.753 201.003, 132.327 198.750 C 131.892 198.063, 131.303 195.250, 131.018 192.500 C 130.601 188.474, 130.110 187.444, 128.500 187.213 C 126.606 186.942, 126.500 187.499, 126.495 197.713 C 126.490 207.764, 126.256 209.046, 123.066 216.500 C 120.357 222.831, 118.272 225.864, 113.071 231.040 C 102.221 241.839, 88.707 249.571, 86.611 246.180 C 85.177 243.859, 82.845 225.632, 83.729 223.650 C 84.374 222.203, 84.263 219.701, 83.389 216 C 82.675 212.975, 81.339 206.450, 80.420 201.500 C 79.501 196.550, 78.392 192.047, 77.955 191.494 C 77.163 190.492, 55.458 191.209, 54.394 192.272 C 53.470 193.197, 66.232 243.390, 68.750 248.731 C 74.583 261.104, 91.816 269.582, 106 267.058 C 108.475 266.617, 119.275 264.584, 130 262.540 C 140.725 260.496, 153.100 258.219, 157.500 257.480 C 161.900 256.740, 175.400 254.278, 187.500 252.008 C 199.600 249.738, 212.200 247.439, 215.500 246.900 C 218.800 246.361, 227.482 244.771, 234.793 243.367 C 247.958 240.838, 248.302 240.824, 270.293 241.946 C 334.411 245.216, 401.889 248.334, 407.073 248.268 C 414.014 248.178, 422.403 242.088, 425.349 235 C 426.714 231.714, 443 168.898, 443 166.916 C 443 165.864, 434.493 165.926, 418 167.101 M 409.741 183.592 C 409.415 183.918, 406.978 184.359, 404.324 184.572 C 390.306 185.698, 388.934 186.043, 387.924 188.700 C 387.287 190.374, 387.305 191.662, 387.974 192.468 C 388.677 193.316, 388.306 196.340, 386.769 202.287 C 385.547 207.014, 384.836 211.170, 385.189 211.522 C 385.542 211.875, 388.906 211.565, 392.665 210.832 C 398.993 209.599, 399.523 209.296, 399.816 206.750 C 400.109 204.205, 399.867 204, 396.566 204 C 394.605 204, 393 203.640, 393 203.200 C 393 201.678, 395.409 200, 397.593 200 C 399.729 200, 401 198.291, 401 195.418 C 401 194.560, 399.980 194, 398.417 194 C 394.374 194, 396.089 191.573, 400.538 191 C 403.634 190.601, 404.550 189.995, 405.069 188 L 405.719 185.500 406.932 188.500 C 409.614 195.131, 409.434 196.665, 405.175 203.458 C 402.937 207.027, 401.491 210.186, 401.963 210.477 C 403.172 211.224, 406.130 210.034, 408.622 207.797 C 410.473 206.136, 410.821 206.091, 411.341 207.446 C 412.062 209.325, 414.982 209.465, 417.349 207.734 C 418.866 206.625, 418.944 205.838, 417.984 201.359 C 416.896 196.290, 416.920 196.203, 420.944 190.459 C 423.175 187.274, 425 184.293, 425 183.834 C 425 181.767, 419.993 183.219, 417.691 185.955 L 415.205 188.910 413.981 185.955 C 412.836 183.189, 411.107 182.226, 409.741 183.592 M 377.331 186.937 C 370.546 190.017, 369.104 195.733, 373.250 203.103 L 375.500 207.103 373.369 208.801 C 372.196 209.736, 370.505 210.950, 369.609 211.500 C 368.245 212.338, 368.153 213.108, 369.038 216.250 C 370.229 220.479, 370.798 220.670, 375.300 218.352 C 382.915 214.430, 385.157 207.225, 380.903 200.343 C 378.452 196.377, 378.916 194.310, 382.457 193.421 C 383.856 193.070, 385 192.360, 385 191.842 C 385 190.907, 382.153 184.980, 381.724 185.022 C 381.601 185.034, 379.624 185.896, 377.331 186.937 M 344.046 189.138 C 341.046 189.635, 338.241 190.595, 337.811 191.271 C 336.741 192.955, 336.803 195.760, 337.926 196.454 C 338.461 196.785, 338.040 199.865, 336.926 203.760 C 334.622 211.814, 334.397 216.446, 336.343 215.699 C 337.082 215.415, 340.195 214.870, 343.261 214.487 C 348.065 213.886, 348.921 213.452, 349.449 211.349 C 350.296 207.974, 349.591 207.260, 345.946 207.795 C 343.291 208.184, 342.860 207.965, 343.162 206.378 C 343.376 205.259, 344.527 204.370, 346.010 204.179 C 351.143 203.518, 352.846 198, 347.917 198 C 343.654 198, 344.651 195.590, 349.077 195.194 C 352.710 194.869, 355 192.787, 355 189.809 C 355 187.767, 353.042 187.647, 344.046 189.138 M 100.500 190.487 C 93.344 193.848, 93.406 193.637, 95.995 205.977 C 97.516 213.226, 98.757 217, 99.619 217 C 101.902 217, 108.243 210.674, 110.135 206.509 C 112.349 201.635, 112.492 196.853, 110.537 193.072 C 108.324 188.792, 105.601 188.091, 100.500 190.487 M 327.281 190.970 C 325.511 192.049, 323.036 194.517, 321.781 196.454 C 320.527 198.391, 319.221 199.981, 318.880 199.988 C 318.539 199.994, 317.690 197.963, 316.993 195.474 C 315.490 190.108, 314.975 189.679, 311.584 190.968 C 309.634 191.709, 309 192.655, 309 194.819 C 309 196.396, 308.130 200.215, 307.067 203.305 C 304.563 210.585, 303.429 218, 304.821 218 C 307.906 218, 311.001 215.889, 311.015 213.775 C 311.024 212.524, 311.425 210.878, 311.907 210.117 C 312.544 209.110, 312.980 209.653, 313.509 212.117 C 314.529 216.868, 314.692 217.003, 318.009 215.847 C 320.212 215.079, 321.233 213.875, 321.986 211.157 C 323.224 206.689, 324.975 203.654, 324.960 206 C 324.955 206.825, 324.496 209.472, 323.941 211.882 C 323.385 214.292, 323.141 216.474, 323.398 216.732 C 323.656 216.989, 325.471 216.670, 327.433 216.022 C 331.377 214.721, 331.299 214.916, 333 202 C 333.616 197.325, 334.326 192.488, 334.579 191.250 C 334.948 189.442, 334.592 189.001, 332.769 189.004 C 331.521 189.006, 329.052 189.891, 327.281 190.970 M 284.167 193.531 C 279.584 194.246, 275.712 194.982, 275.561 195.166 C 275.410 195.350, 275.009 196.963, 274.669 198.750 C 274.064 201.927, 274.131 202, 277.632 202 C 280.635 202, 281.104 202.283, 280.537 203.750 C 279.167 207.287, 275.052 225.385, 275.512 225.845 C 275.773 226.107, 277.711 225.804, 279.817 225.173 L 283.648 224.025 285.727 213.481 C 287.976 202.080, 289.023 200, 292.515 200 C 294.943 200, 296 198.308, 296 194.418 C 296 191.649, 296.147 191.660, 284.167 193.531 M 299.540 193.250 C 297.884 198.465, 293 217.358, 293 218.550 C 293 219.664, 293.692 219.875, 295.750 219.390 C 297.262 219.033, 298.797 218.462, 299.160 218.121 C 299.872 217.451, 306 195.094, 306 193.167 C 306 191.593, 300.042 191.670, 299.540 193.250 M 100.655 194.622 C 98.470 195.806, 97.943 196.667, 98.383 198.332 C 98.698 199.524, 99.488 202.863, 100.137 205.750 C 100.787 208.637, 101.584 210.997, 101.909 210.993 C 103.064 210.980, 106.974 204.381, 107.555 201.464 C 108.249 197.980, 106.600 192.983, 104.775 193.040 C 104.074 193.062, 102.220 193.774, 100.655 194.622 M 234 196.964 C 232.218 197.394, 230.337 199.608, 227.451 204.669 C 223.213 212.104, 219.195 222.528, 220.185 223.519 C 221.732 225.066, 226.158 222.558, 227.485 219.383 C 229.380 214.847, 231.293 214.923, 230.434 219.500 C 229.719 223.313, 230.361 223.704, 234.351 221.886 C 235.863 221.197, 237.025 219.624, 237.398 217.761 C 238.241 213.545, 238.122 198.722, 237.235 197.430 C 236.831 196.842, 235.375 196.632, 234 196.964 M 246.902 198.750 C 244.724 204.460, 241 218.322, 241 220.719 C 241 222.517, 241.416 223.054, 242.488 222.643 C 243.306 222.329, 246.344 221.765, 249.238 221.389 C 254.868 220.657, 255.961 219.818, 255.985 216.205 C 255.999 214.121, 255.677 213.970, 252.500 214.566 C 250.493 214.943, 249 214.817, 249 214.271 C 249 213.748, 249.900 209.801, 251 205.500 C 253.495 195.744, 253.509 196, 250.475 196 C 248.642 196, 247.663 196.753, 246.902 198.750 M 211 198.900 L 206.500 199.500 206.424 205 C 206.382 208.025, 205.602 213.425, 204.689 217 C 203.776 220.575, 203.023 223.882, 203.015 224.348 C 202.995 225.467, 215.140 224.068, 216.750 222.766 C 217.438 222.210, 218 220.629, 218 219.253 C 218 217.013, 217.689 216.812, 215.039 217.342 C 209.810 218.388, 210.193 215.051, 215.500 213.323 C 217.707 212.604, 218.585 211.630, 218.820 209.636 C 219.110 207.177, 218.903 206.986, 216.570 207.572 C 214.665 208.050, 214 207.828, 214 206.715 C 214 204.998, 216.063 204, 219.614 204 C 221.972 204, 224.395 200.570, 223.324 198.750 C 222.835 197.921, 217.897 197.981, 211 198.900 M 183.500 200.837 C 181.075 201.417, 180.543 202.028, 180.723 204.027 C 181.358 211.076, 181.166 213.132, 179.183 220.500 C 177.999 224.900, 177.024 229.714, 177.015 231.198 C 177 233.879, 177.023 233.887, 180.750 232.604 C 184.066 231.463, 184.639 230.761, 185.701 226.539 C 186.362 223.912, 187.117 221.550, 187.379 221.288 C 187.641 221.026, 189.520 223.320, 191.556 226.386 C 193.591 229.451, 195.536 231.835, 195.878 231.683 C 203.038 228.494, 203.327 227.581, 198.808 222.434 L 195.616 218.798 197.691 217.149 C 202.179 213.582, 203.377 206.923, 200.231 203.037 C 198.850 201.332, 197.148 200.772, 192.481 200.486 C 189.191 200.285, 185.150 200.443, 183.500 200.837 M 190.035 208.934 C 188.616 211.586, 188.720 212, 190.800 212 C 193.500 212, 195.203 209.950, 193.854 208.324 C 192.334 206.493, 191.249 206.666, 190.035 208.934 M 257.750 245.706 C 258.988 245.944, 261.012 245.944, 262.250 245.706 C 263.488 245.467, 262.475 245.272, 260 245.272 C 257.525 245.272, 256.512 245.467, 257.750 245.706" stroke="none" fill="#f4960d" fill-rule="evenodd"/><path d="M 450 23.504 C 443.210 24.586, 348.914 42.196, 267 57.680 L 253.500 60.232 228.500 58.590 C 214.750 57.687, 182.800 55.549, 157.500 53.838 C 122.068 51.443, 103.919 50.703, 78.500 50.614 C 45.826 50.501, 45.464 50.522, 41.847 52.772 C 36.703 55.970, 31.218 62.335, 28.413 68.360 C 23.061 79.854, 25.205 92.669, 47.509 182.500 C 63.896 248.498, 66.730 256.769, 74.901 262.431 C 85.997 270.121, 97.837 271.573, 120 267.964 C 132.075 265.997, 230.493 248.209, 242.309 245.858 C 246.036 245.116, 252.489 244.933, 260.309 245.346 C 267.014 245.700, 287.575 246.669, 306 247.499 C 324.425 248.328, 348.725 249.455, 360 250.002 C 371.275 250.549, 388.212 250.998, 397.637 250.998 L 414.774 251 419.595 247.750 C 425.429 243.818, 427.834 239.375, 431.916 225 C 438.506 201.789, 474.098 59.525, 476.995 44.818 C 478.298 38.198, 477.231 32.990, 473.730 28.887 C 468.474 22.728, 462.865 21.456, 450 23.504 M 381.236 71.019 C 370.231 73.495, 361.432 86.330, 360.273 101.593 C 359.286 114.608, 364.568 124.027, 372.827 123.978 C 380.015 123.935, 389.660 117.426, 393.479 110.041 C 395.147 106.816, 394.956 106.547, 390.279 105.545 C 387.410 104.929, 386.637 105.298, 383.184 108.927 C 380.045 112.227, 378.623 113, 375.690 113 C 371.030 113, 369.765 110.733, 369.813 102.468 C 369.855 95.179, 372.939 86.979, 376.774 83.963 C 380.371 81.134, 386.056 81.366, 388.965 84.462 L 391.278 86.925 395.634 83.796 L 399.990 80.668 398.210 77.619 C 395.124 72.337, 387.886 69.522, 381.236 71.019 M 331.255 71.732 C 328.562 71.975, 326.692 72.734, 326.142 73.807 C 323.505 78.957, 311.750 130.967, 312.931 132.263 C 313.886 133.311, 320.216 131.099, 321.750 129.181 C 322.438 128.321, 323 126.409, 323 124.931 C 323 121.375, 324.666 120.161, 330.043 119.799 C 334.445 119.504, 334.506 119.543, 335.012 123 C 335.550 126.676, 336.435 126.961, 342.750 125.487 C 345.460 124.854, 345.495 124.127, 343.526 109.196 C 342.715 103.049, 341.747 91.940, 341.374 84.510 L 340.696 71 338.098 71.175 C 336.669 71.271, 333.590 71.522, 331.255 71.732 M 414.678 79.634 C 412.321 87.725, 409.422 101.038, 408.066 110 C 407.442 114.125, 406.701 118.963, 406.420 120.750 C 405.931 123.865, 406.047 123.999, 409.205 123.986 C 416.144 123.958, 416.553 123.534, 417.953 114.911 C 418.663 110.542, 419.632 106.728, 420.106 106.434 C 421.254 105.725, 424.744 111.505, 426.184 116.500 C 426.818 118.700, 427.671 120.887, 428.079 121.360 C 428.740 122.128, 439 119.400, 439 118.457 C 439 117.226, 434.315 105.855, 432.372 102.369 L 430.068 98.238 439.284 88.496 C 444.353 83.138, 448.633 78.411, 448.795 77.991 C 449.127 77.133, 443.566 74.988, 441.101 75.022 C 440.220 75.035, 435.900 79.058, 431.500 83.963 C 427.100 88.869, 423.366 92.506, 423.202 92.047 C 423.038 91.588, 423.782 87.677, 424.856 83.356 C 425.929 79.035, 426.687 75.374, 426.539 75.219 C 426.392 75.064, 424.047 74.675, 421.329 74.353 L 416.387 73.767 414.678 79.634 M 283.500 75.634 C 282.400 75.912, 277.785 77.249, 273.244 78.604 L 264.987 81.068 265.577 85.284 C 266.417 91.286, 266.750 92.033, 268.322 91.430 C 269.499 90.978, 269.639 93.934, 269.213 110.194 C 268.854 123.874, 268.344 129.786, 267.460 130.497 C 266.775 131.049, 266.003 133.901, 265.746 136.835 L 265.277 142.171 268.889 141.522 C 288.499 138.003, 299.927 128.937, 300.741 116.255 C 301.110 110.504, 300.805 109.665, 295.895 102.949 C 294.993 101.715, 295.410 100.477, 297.932 96.899 C 300.210 93.666, 301.263 90.850, 301.671 86.895 C 302.173 82.033, 301.951 81.055, 299.771 78.520 C 297.640 76.043, 296.492 75.614, 291.401 75.389 C 288.155 75.246, 284.600 75.356, 283.500 75.634 M 233.285 85.888 C 225.466 88.478, 218.817 90.849, 218.509 91.157 C 218.201 91.465, 218.249 94.266, 218.615 97.382 C 219.174 102.134, 219.558 102.958, 221.004 102.499 C 222.550 102.008, 222.795 103.259, 223.397 114.726 C 224.197 129.949, 225.949 152.031, 226.487 153.662 C 226.736 154.417, 229.610 153.506, 234.685 151.063 C 238.983 148.995, 244.652 146.492, 247.283 145.503 L 252.066 143.703 251.400 137.602 C 251.034 134.246, 250.679 131.422, 250.611 131.327 C 250.543 131.231, 247.139 132.456, 243.048 134.048 C 238.956 135.639, 235.458 136.791, 235.273 136.607 C 235.089 136.422, 234.665 133.968, 234.332 131.153 C 233.572 124.741, 234.344 123.774, 242.568 120.825 L 249 118.518 248.985 113.509 C 248.961 105.771, 248.344 105.378, 240.932 108.372 C 237.448 109.779, 234.378 110.712, 234.111 110.444 C 233.843 110.177, 233.433 107.312, 233.199 104.078 L 232.774 98.198 241.387 95.393 L 250 92.588 250.150 88.294 C 250.233 85.932, 250.345 83.444, 250.400 82.764 C 250.577 80.576, 247.777 81.087, 233.285 85.888 M 278.500 87.713 C 275.317 88.479, 274.615 89.743, 276.960 90.487 C 278.944 91.117, 279.067 91.619, 278.446 96.587 C 277.882 101.101, 278.027 102, 279.320 102 C 282.168 102, 286.052 100.047, 288.538 97.364 C 291.412 94.263, 291.926 88.569, 289.418 87.607 C 287.639 86.924, 281.533 86.983, 278.500 87.713 M 328.561 98.261 C 326.981 104.179, 325.937 109.270, 326.242 109.575 C 326.546 109.880, 328.433 109.822, 330.434 109.446 L 334.073 108.764 333.398 102.632 C 333.027 99.259, 332.434 94.475, 332.079 92 L 331.435 87.500 328.561 98.261 M 180.935 100.290 C 173.135 102.949, 169 105.475, 169 107.580 C 169 108.424, 169.505 111.121, 170.123 113.573 C 170.932 116.786, 171.700 117.957, 172.873 117.766 C 174.282 117.536, 174.600 119.376, 175.249 131.500 C 175.954 144.681, 178.673 173.006, 179.293 173.626 C 179.449 173.782, 181.490 172.768, 183.830 171.373 C 186.768 169.621, 187.938 168.321, 187.613 167.169 C 187.355 166.251, 186.834 161.729, 186.456 157.121 L 185.769 148.742 189.929 151.080 C 193.478 153.075, 198.829 159.380, 200.335 163.342 C 200.588 164.006, 202.604 162.713, 205.064 160.309 L 209.353 156.117 206.455 151.935 C 204.861 149.635, 201.663 146.307, 199.347 144.539 L 195.137 141.324 198.065 136.912 C 206.540 124.140, 208.201 105.450, 201.341 100.054 C 197.804 97.271, 189.508 97.367, 180.935 100.290 M 183.706 112.676 C 180.037 114.197, 179.979 114.297, 181.956 115.681 C 183.644 116.864, 184.021 118.279, 184.118 123.807 C 184.183 127.488, 184.521 131.804, 184.868 133.398 L 185.500 136.296 188.892 133.439 C 195.102 128.210, 197.873 118.119, 194.443 113.223 C 192.600 110.591, 189.157 110.416, 183.706 112.676 M 279.313 111.786 C 278.659 112.201, 277.808 116.044, 277.420 120.325 L 276.714 128.110 279.607 127.415 C 284.039 126.350, 287.716 124.243, 289.439 121.783 C 291.292 119.138, 291.489 113.889, 289.800 112.200 C 288.478 110.878, 281.192 110.591, 279.313 111.786 M 138.250 115.501 L 133 117.887 133 140.174 C 133 159.395, 134.633 194.782, 135.570 195.857 C 135.741 196.054, 137.699 194.929, 139.921 193.357 L 143.960 190.500 143.362 184.443 C 142.800 178.762, 142.920 178.283, 145.277 176.738 C 146.660 175.832, 148.957 174.798, 150.381 174.441 C 153.042 173.773, 153.029 173.756, 155.535 180.845 C 155.906 181.896, 156.720 181.743, 159.255 180.146 C 161.040 179.022, 162.890 177.496, 163.366 176.755 C 163.915 175.901, 162.873 171.219, 160.516 163.954 C 154.878 146.574, 149.207 126.929, 146.603 115.750 C 145.832 112.444, 145.030 112.420, 138.250 115.501 M 355.758 114.575 C 355.004 115.329, 357.089 123.123, 358.725 125.664 C 362.148 130.984, 371.708 132.440, 380.723 129.014 C 393.151 124.290, 396.221 134.157, 384.578 141.407 C 378.447 145.225, 369.304 149, 366.191 149 C 363.040 149, 356.450 152.520, 354.566 155.209 C 350.936 160.391, 354.725 165.878, 360.983 164.504 C 364.658 163.697, 369.552 159.767, 371.447 156.102 C 372.208 154.630, 375.867 151.670, 379.643 149.472 C 394.849 140.618, 399.539 132.812, 393.364 126.636 C 390.102 123.375, 385.099 123.146, 379.500 126 C 377.342 127.100, 373.604 128, 371.193 128 C 364.870 128, 361.340 125.538, 359.434 119.803 C 357.872 115.097, 356.783 113.550, 355.758 114.575 M 92.473 134.935 C 88.167 136.853, 68 151.633, 68 152.871 C 68 153.278, 69.272 157.101, 70.827 161.366 C 73.306 168.164, 73.821 168.921, 75.002 167.497 C 76.650 165.512, 77.416 166.626, 78.443 172.500 C 78.828 174.700, 81.397 187.075, 84.152 200 C 87.997 218.039, 88.907 223.907, 88.071 225.251 C 86.932 227.082, 88.485 240.606, 90.033 242.342 C 91.052 243.484, 104.028 234.817, 109.982 229.017 C 126.469 212.958, 127.436 183.962, 111.799 174.500 C 110.270 173.574, 110.286 172.980, 112.016 166.500 C 115.352 154.004, 114.122 141.483, 109.021 136.022 C 106.603 133.434, 105.502 133.010, 101.349 133.071 C 98.682 133.109, 94.688 133.948, 92.473 134.935 M 141.523 138.315 C 140.774 140.042, 141.725 163.049, 142.580 163.911 C 142.805 164.137, 144.493 163.511, 146.332 162.521 L 149.675 160.720 146.447 150.548 C 144.672 144.954, 143.014 139.504, 142.764 138.438 C 142.334 136.604, 142.267 136.598, 141.523 138.315 M 87.905 157.155 L 81.500 161.310 84.500 162.292 C 86.150 162.832, 87.625 163.374, 87.777 163.498 C 87.930 163.621, 88.655 167.171, 89.388 171.388 C 90.121 175.604, 90.971 179.305, 91.277 179.610 C 92.262 180.595, 99.902 172.169, 101.556 168.273 C 103.328 164.101, 103.040 156.958, 101 154.501 C 98.884 151.951, 94.584 152.822, 87.905 157.155 M 418 167.101 C 411.675 167.551, 396.600 168.624, 384.500 169.485 C 372.400 170.347, 355.863 171.490, 347.750 172.026 C 306.205 174.770, 296.848 175.418, 282.500 176.547 C 279.200 176.806, 265.925 177.685, 253 178.499 C 240.075 179.314, 226.629 180.219, 223.120 180.511 C 219.612 180.804, 209.937 181.488, 201.620 182.033 C 193.304 182.577, 179.975 183.526, 172 184.142 C 164.025 184.758, 156.375 185.214, 155 185.155 C 149.721 184.930, 148 185.872, 148 188.987 C 148 191.380, 146.994 192.694, 142.659 195.968 C 137.229 200.067, 133.753 201.003, 132.327 198.750 C 131.892 198.063, 131.303 195.250, 131.018 192.500 C 130.601 188.474, 130.110 187.444, 128.500 187.213 C 126.606 186.942, 126.500 187.499, 126.495 197.713 C 126.490 207.764, 126.256 209.046, 123.066 216.500 C 120.357 222.831, 118.272 225.864, 113.071 231.040 C 102.221 241.839, 88.707 249.571, 86.611 246.180 C 85.177 243.859, 82.845 225.632, 83.729 223.650 C 84.374 222.203, 84.263 219.701, 83.389 216 C 82.675 212.975, 81.339 206.450, 80.420 201.500 C 79.501 196.550, 78.392 192.047, 77.955 191.494 C 77.163 190.492, 55.458 191.209, 54.394 192.272 C 53.470 193.197, 66.232 243.390, 68.750 248.731 C 74.583 261.104, 91.816 269.582, 106 267.058 C 108.475 266.617, 119.275 264.584, 130 262.540 C 140.725 260.496, 153.100 258.219, 157.500 257.480 C 161.900 256.740, 175.400 254.278, 187.500 252.008 C 199.600 249.738, 212.200 247.439, 215.500 246.900 C 218.800 246.361, 227.482 244.771, 234.793 243.367 C 247.958 240.838, 248.302 240.824, 270.293 241.946 C 334.411 245.216, 401.889 248.334, 407.073 248.268 C 414.014 248.178, 422.403 242.088, 425.349 235 C 426.714 231.714, 443 168.898, 443 166.916 C 443 165.864, 434.493 165.926, 418 167.101 M 409.741 183.592 C 409.415 183.918, 406.978 184.359, 404.324 184.572 C 390.306 185.698, 388.934 186.043, 387.924 188.700 C 387.287 190.374, 387.305 191.662, 387.974 192.468 C 388.677 193.316, 388.306 196.340, 386.769 202.287 C 385.547 207.014, 384.836 211.170, 385.189 211.522 C 385.542 211.875, 388.906 211.565, 392.665 210.832 C 398.993 209.599, 399.523 209.296, 399.816 206.750 C 400.109 204.205, 399.867 204, 396.566 204 C 394.605 204, 393 203.640, 393 203.200 C 393 201.678, 395.409 200, 397.593 200 C 399.729 200, 401 198.291, 401 195.418 C 401 194.560, 399.980 194, 398.417 194 C 394.374 194, 396.089 191.573, 400.538 191 C 403.634 190.601, 404.550 189.995, 405.069 188 L 405.719 185.500 406.932 188.500 C 409.614 195.131, 409.434 196.665, 405.175 203.458 C 402.937 207.027, 401.491 210.186, 401.963 210.477 C 403.172 211.224, 406.130 210.034, 408.622 207.797 C 410.473 206.136, 410.821 206.091, 411.341 207.446 C 412.062 209.325, 414.982 209.465, 417.349 207.734 C 418.866 206.625, 418.944 205.838, 417.984 201.359 C 416.896 196.290, 416.920 196.203, 420.944 190.459 C 423.175 187.274, 425 184.293, 425 183.834 C 425 181.767, 419.993 183.219, 417.691 185.955 L 415.205 188.910 413.981 185.955 C 412.836 183.189, 411.107 182.226, 409.741 183.592 M 377.331 186.937 C 370.546 190.017, 369.104 195.733, 373.250 203.103 L 375.500 207.103 373.369 208.801 C 372.196 209.736, 370.505 210.950, 369.609 211.500 C 368.245 212.338, 368.153 213.108, 369.038 216.250 C 370.229 220.479, 370.798 220.670, 375.300 218.352 C 382.915 214.430, 385.157 207.225, 380.903 200.343 C 378.452 196.377, 378.916 194.310, 382.457 193.421 C 383.856 193.070, 385 192.360, 385 191.842 C 385 190.907, 382.153 184.980, 381.724 185.022 C 381.601 185.034, 379.624 185.896, 377.331 186.937 M 344.046 189.138 C 341.046 189.635, 338.241 190.595, 337.811 191.271 C 336.741 192.955, 336.803 195.760, 337.926 196.454 C 338.461 196.785, 338.040 199.865, 336.926 203.760 C 334.622 211.814, 334.397 216.446, 336.343 215.699 C 337.082 215.415, 340.195 214.870, 343.261 214.487 C 348.065 213.886, 348.921 213.452, 349.449 211.349 C 350.296 207.974, 349.591 207.260, 345.946 207.795 C 343.291 208.184, 342.860 207.965, 343.162 206.378 C 343.376 205.259, 344.527 204.370, 346.010 204.179 C 351.143 203.518, 352.846 198, 347.917 198 C 343.654 198, 344.651 195.590, 349.077 195.194 C 352.710 194.869, 355 192.787, 355 189.809 C 355 187.767, 353.042 187.647, 344.046 189.138 M 100.500 190.487 C 93.344 193.848, 93.406 193.637, 95.995 205.977 C 97.516 213.226, 98.757 217, 99.619 217 C 101.902 217, 108.243 210.674, 110.135 206.509 C 112.349 201.635, 112.492 196.853, 110.537 193.072 C 108.324 188.792, 105.601 188.091, 100.500 190.487 M 327.281 190.970 C 325.511 192.049, 323.036 194.517, 321.781 196.454 C 320.527 198.391, 319.221 199.981, 318.880 199.988 C 318.539 199.994, 317.690 197.963, 316.993 195.474 C 315.490 190.108, 314.975 189.679, 311.584 190.968 C 309.634 191.709, 309 192.655, 309 194.819 C 309 196.396, 308.130 200.215, 307.067 203.305 C 304.563 210.585, 303.429 218, 304.821 218 C 307.906 218, 311.001 215.889, 311.015 213.775 C 311.024 212.524, 311.425 210.878, 311.907 210.117 C 312.544 209.110, 312.980 209.653, 313.509 212.117 C 314.529 216.868, 314.692 217.003, 318.009 215.847 C 320.212 215.079, 321.233 213.875, 321.986 211.157 C 323.224 206.689, 324.975 203.654, 324.960 206 C 324.955 206.825, 324.496 209.472, 323.941 211.882 C 323.385 214.292, 323.141 216.474, 323.398 216.732 C 323.656 216.989, 325.471 216.670, 327.433 216.022 C 331.377 214.721, 331.299 214.916, 333 202 C 333.616 197.325, 334.326 192.488, 334.579 191.250 C 334.948 189.442, 334.592 189.001, 332.769 189.004 C 331.521 189.006, 329.052 189.891, 327.281 190.970 M 284.167 193.531 C 279.584 194.246, 275.712 194.982, 275.561 195.166 C 275.410 195.350, 275.009 196.963, 274.669 198.750 C 274.064 201.927, 274.131 202, 277.632 202 C 280.635 202, 281.104 202.283, 280.537 203.750 C 279.167 207.287, 275.052 225.385, 275.512 225.845 C 275.773 226.107, 277.711 225.804, 279.817 225.173 L 283.648 224.025 285.727 213.481 C 287.976 202.080, 289.023 200, 292.515 200 C 294.943 200, 296 198.308, 296 194.418 C 296 191.649, 296.147 191.660, 284.167 193.531 M 299.540 193.250 C 297.884 198.465, 293 217.358, 293 218.550 C 293 219.664, 293.692 219.875, 295.750 219.390 C 297.262 219.033, 298.797 218.462, 299.160 218.121 C 299.872 217.451, 306 195.094, 306 193.167 C 306 191.593, 300.042 191.670, 299.540 193.250 M 100.655 194.622 C 98.470 195.806, 97.943 196.667, 98.383 198.332 C 98.698 199.524, 99.488 202.863, 100.137 205.750 C 100.787 208.637, 101.584 210.997, 101.909 210.993 C 103.064 210.980, 106.974 204.381, 107.555 201.464 C 108.249 197.980, 106.600 192.983, 104.775 193.040 C 104.074 193.062, 102.220 193.774, 100.655 194.622 M 234 196.964 C 232.218 197.394, 230.337 199.608, 227.451 204.669 C 223.213 212.104, 219.195 222.528, 220.185 223.519 C 221.732 225.066, 226.158 222.558, 227.485 219.383 C 229.380 214.847, 231.293 214.923, 230.434 219.500 C 229.719 223.313, 230.361 223.704, 234.351 221.886 C 235.863 221.197, 237.025 219.624, 237.398 217.761 C 238.241 213.545, 238.122 198.722, 237.235 197.430 C 236.831 196.842, 235.375 196.632, 234 196.964 M 246.902 198.750 C 244.724 204.460, 241 218.322, 241 220.719 C 241 222.517, 241.416 223.054, 242.488 222.643 C 243.306 222.329, 246.344 221.765, 249.238 221.389 C 254.868 220.657, 255.961 219.818, 255.985 216.205 C 255.999 214.121, 255.677 213.970, 252.500 214.566 C 250.493 214.943, 249 214.817, 249 214.271 C 249 213.748, 249.900 209.801, 251 205.500 C 253.495 195.744, 253.509 196, 250.475 196 C 248.642 196, 247.663 196.753, 246.902 198.750 M 211 198.900 L 206.500 199.500 206.424 205 C 206.382 208.025, 205.602 213.425, 204.689 217 C 203.776 220.575, 203.023 223.882, 203.015 224.348 C 202.995 225.467, 215.140 224.068, 216.750 222.766 C 217.438 222.210, 218 220.629, 218 219.253 C 218 217.013, 217.689 216.812, 215.039 217.342 C 209.810 218.388, 210.193 215.051, 215.500 213.323 C 217.707 212.604, 218.585 211.630, 218.820 209.636 C 219.110 207.177, 218.903 206.986, 216.570 207.572 C 214.665 208.050, 214 207.828, 214 206.715 C 214 204.998, 216.063 204, 219.614 204 C 221.972 204, 224.395 200.570, 223.324 198.750 C 222.835 197.921, 217.897 197.981, 211 198.900 M 183.500 200.837 C 181.075 201.417, 180.543 202.028, 180.723 204.027 C 181.358 211.076, 181.166 213.132, 179.183 220.500 C 177.999 224.900, 177.024 229.714, 177.015 231.198 C 177 233.879, 177.023 233.887, 180.750 232.604 C 184.066 231.463, 184.639 230.761, 185.701 226.539 C 186.362 223.912, 187.117 221.550, 187.379 221.288 C 187.641 221.026, 189.520 223.320, 191.556 226.386 C 193.591 229.451, 195.536 231.835, 195.878 231.683 C 203.038 228.494, 203.327 227.581, 198.808 222.434 L 195.616 218.798 197.691 217.149 C 202.179 213.582, 203.377 206.923, 200.231 203.037 C 198.850 201.332, 197.148 200.772, 192.481 200.486 C 189.191 200.285, 185.150 200.443, 183.500 200.837 M 190.035 208.934 C 188.616 211.586, 188.720 212, 190.800 212 C 193.500 212, 195.203 209.950, 193.854 208.324 C 192.334 206.493, 191.249 206.666, 190.035 208.934" stroke="none" fill="#272420" fill-rule="evenodd"/></svg>