<?xml version="1.0" standalone="no"?>
<!DOCTYPE svg PUBLIC "-//W3C//DTD SVG 20010904//EN"
 "http://www.w3.org/TR/2001/REC-SVG-20010904/DTD/svg10.dtd">
<svg version="1.0" xmlns="http://www.w3.org/2000/svg"
 width="491.000000pt" height="247.000000pt" viewBox="0 0 491.000000 247.000000"
 preserveAspectRatio="xMidYMid meet">
<metadata>
Created by potrace 1.10, written by Peter Selinger 2001-2011
</metadata>
<g transform="translate(0.000000,247.000000) scale(0.050000,-0.050000)"
fill="#000000" stroke="none">
<path d="M8656 4909 c-7 -7 -286 -52 -619 -101 -334 -48 -751 -110 -927 -138
-176 -27 -626 -95 -1000 -151 -374 -56 -878 -131 -1121 -167 l-441 -66 -609
56 c-335 30 -663 61 -729 67 -309 29 -1022 94 -1220 112 -214 19 -666 61
-1010 93 -517 49 -757 -41 -885 -331 -90 -203 -86 -234 168 -1363 89 -390 171
-771 183 -844 l23 -135 180 10 c100 6 219 14 265 19 84 9 84 8 98 -65 7 -41
33 -177 58 -302 37 -187 41 -228 18 -237 -16 -6 -24 -28 -19 -53 5 -24 24
-144 43 -268 l33 -225 138 74 c448 242 646 534 643 949 l-1 173 62 -3 63 -3 6
-155 c7 -182 4 -181 175 -62 126 88 132 96 120 157 -14 76 94 118 142 57 21
-26 31 -26 80 -1 43 22 189 32 597 43 297 7 594 17 660 21 66 4 300 12 520 19
220 7 472 16 560 21 88 5 349 14 580 20 231 7 488 16 570 20 83 4 339 13 570
20 231 7 465 16 520 20 220 16 1090 34 1090 23 0 -6 -49 -48 -108 -93 -86 -65
-106 -91 -98 -126 8 -35 5 -38 -12 -14 -28 39 -31 -45 -4 -97 13 -23 7 -68
-18 -138 -20 -58 -32 -105 -26 -105 6 0 2 -11 -9 -25 -11 -14 -27 -71 -34
-128 -8 -56 -40 -155 -73 -220 -32 -64 -58 -130 -58 -147 -1 -27 -3 -27 -20 0
-26 41 -25 7 1 -43 18 -33 15 -42 -18 -50 -23 -7 -36 -22 -30 -38 6 -15 -17
-54 -50 -86 -33 -32 -56 -63 -51 -68 5 -6 -34 -12 -86 -14 -53 -2 -134 -5
-179 -8 -46 -2 -80 3 -74 11 5 8 -48 16 -117 17 -291 4 -396 10 -396 21 0 7
-47 12 -105 12 -89 0 -271 10 -545 32 -33 2 -71 11 -84 20 -13 8 -29 5 -36 -6
-14 -23 -188 -16 -229 9 -15 9 -32 6 -41 -9 -12 -19 -17 -19 -23 0 -8 24 -177
36 -597 40 -115 1 -244 11 -286 22 -82 22 -627 28 -724 8 -33 -6 -132 -20
-220 -29 -195 -22 -287 -37 -312 -52 -10 -6 -18 -2 -18 9 0 14 -17 15 -51 2
-62 -24 -123 -35 -369 -69 -104 -14 -206 -33 -225 -41 -23 -9 -35 -5 -35 13
-1 19 -5 20 -15 4 -8 -13 -56 -26 -105 -29 -50 -3 -103 -15 -119 -27 -23 -17
-25 -15 -11 9 14 24 12 26 -11 8 -16 -11 -98 -20 -182 -20 -84 1 -149 -5 -144
-13 5 -8 -2 -16 -17 -17 -14 -1 -56 -5 -93 -8 -38 -3 -74 -14 -80 -24 -7 -10
-66 -18 -130 -17 -64 0 -121 -6 -126 -14 -6 -9 -18 -11 -27 -5 -9 6 -23 1 -30
-10 -7 -11 -19 -17 -27 -12 -7 5 -51 1 -97 -7 -57 -10 -88 -8 -94 7 -5 13 -9
11 -10 -5 -2 -24 -7 -24 -36 0 -20 16 -28 17 -19 3 18 -30 -364 -22 -384 8 -7
10 -42 36 -77 56 -35 21 -60 44 -54 52 5 9 -4 23 -19 32 -28 16 -82 106 -65
106 6 0 -3 36 -18 81 -16 44 -22 76 -13 71 9 -6 14 10 11 34 -2 24 -6 44 -8
44 -5 0 -19 55 -32 125 -7 35 -18 61 -25 57 -7 -5 -15 33 -18 82 -2 50 -14
103 -26 117 -12 14 -19 38 -17 53 2 14 -3 42 -11 61 -9 20 -11 58 -6 85 5 28
2 50 -8 50 -34 0 -16 40 18 41 65 3 -38 36 -116 38 -39 0 -82 12 -95 25 -54
54 -45 -28 55 -479 125 -562 153 -636 285 -755 246 -221 366 -220 1916 8 611
90 1205 176 1320 193 230 33 265 31 1730 -81 352 -27 789 -59 970 -70 182 -11
416 -30 522 -42 452 -51 492 -3 759 922 100 347 331 1134 514 1750 349 1179
379 1293 358 1376 -17 67 -107 173 -167 196 -81 30 -137 41 -150 27z m62 -294
c1 14 12 25 23 25 12 0 16 -9 9 -20 -7 -11 -3 -20 9 -20 11 0 19 -22 16 -50
-2 -27 -12 -50 -22 -50 -9 0 -12 -13 -6 -28 6 -16 -7 -75 -29 -132 -21 -56
-34 -111 -27 -121 6 -11 1 -19 -12 -19 -13 0 -18 -14 -11 -31 6 -18 3 -26 -8
-19 -12 7 -21 -16 -23 -54 -7 -154 -102 -476 -141 -476 -8 0 -10 -13 -4 -28 6
-15 2 -34 -10 -41 -11 -7 -16 -24 -10 -39 6 -15 -4 -41 -21 -58 -19 -19 -22
-34 -9 -38 15 -5 15 -22 1 -57 -37 -93 -49 -129 -47 -142 2 -8 -13 -62 -33
-120 -20 -59 -33 -118 -28 -132 4 -14 -2 -25 -15 -25 -14 0 -19 -13 -13 -30 7
-18 1 -30 -15 -30 -15 0 -32 -18 -38 -40 -6 -22 -2 -40 8 -40 10 0 18 -9 18
-20 0 -11 -13 -20 -29 -20 -18 0 -25 -12 -18 -30 6 -16 1 -30 -11 -30 -13 0
-19 -21 -14 -50 5 -27 0 -50 -11 -50 -12 0 -17 -12 -11 -28 6 -15 1 -37 -12
-50 -16 -16 -15 -22 6 -22 19 0 16 -8 -9 -27 -21 -15 -31 -37 -23 -49 16 -26
-32 -30 -451 -32 -167 -1 -288 -10 -282 -20 6 -10 -12 -12 -42 -5 -29 8 -53 7
-53 -2 0 -12 -192 -16 -335 -7 -65 5 46 97 228 189 105 53 238 221 244 307 8
115 -95 286 -172 286 -22 0 -17 17 20 65 27 36 67 101 90 144 l40 80 -112 35
c-150 47 -176 45 -216 -15 -93 -142 -196 -127 -193 28 4 257 244 446 298 232
16 -63 33 -58 201 66 137 100 139 105 61 219 -96 141 -335 199 -493 119 -37
-18 -84 -33 -104 -33 -20 0 -37 -13 -37 -30 0 -16 -17 -30 -37 -30 -78 0 -222
-377 -223 -581 0 -96 -8 -118 -53 -158 -55 -48 -61 -300 -7 -318 11 -3 14 -16
7 -28 -8 -12 -4 -15 9 -7 12 7 40 -4 62 -26 21 -21 81 -45 133 -53 73 -11 87
-19 61 -33 -18 -10 -28 -27 -21 -37 6 -11 -18 -20 -55 -21 -104 -2 -132 -11
-201 -66 -103 -82 -135 -117 -135 -145 0 -15 -9 -27 -20 -27 -11 0 -20 -16
-20 -36 0 -19 -13 -54 -29 -77 -16 -23 -23 -49 -15 -57 8 -9 -6 -11 -31 -5
-31 8 -45 2 -45 -17 0 -21 -29 -28 -120 -25 -73 1 -120 11 -120 25 0 12 -9 9
-19 -7 -15 -24 -23 -24 -51 -1 -25 21 -36 22 -48 3 -8 -13 -42 -22 -74 -20
-33 3 -70 -2 -84 -10 -13 -9 -24 -6 -24 5 0 22 -120 17 -158 -7 -13 -8 -35 -6
-48 4 -31 23 -196 14 -286 -16 -62 -20 -74 -18 -99 14 -22 29 -28 31 -28 7 -1
-36 -241 -46 -266 -11 -9 13 -15 13 -15 1 0 -12 -98 -21 -249 -23 -136 -2
-258 -9 -270 -16 -11 -7 -21 -6 -21 3 0 19 -138 30 -180 13 -24 -9 -22 -15 10
-28 38 -15 38 -16 -5 -18 -25 0 -46 10 -47 24 -1 20 -3 20 -11 0 -6 -14 -24
-25 -40 -25 -16 0 -24 9 -17 20 18 29 -77 25 -107 -5 -20 -20 -28 -19 -41 2
-12 20 -21 21 -31 4 -8 -12 -52 -21 -98 -18 -136 6 -462 -44 -611 -94 -62 -21
20 46 100 82 l83 37 -13 160 -14 161 48 -45 c26 -25 68 -87 94 -139 25 -52 49
-99 53 -103 3 -4 45 27 92 70 47 43 110 98 140 121 30 24 55 51 55 60 0 24
-135 226 -194 289 l-48 52 59 118 c212 426 126 768 -194 768 -159 0 -503 -114
-558 -185 -28 -37 56 -399 90 -386 19 7 25 -36 26 -185 0 -177 16 -412 51
-739 l13 -125 -71 0 -71 0 -80 255 c-100 321 -122 401 -222 793 -45 176 -84
322 -89 326 -4 4 -87 -22 -184 -59 l-178 -66 -12 -149 c-7 -83 -11 -357 -9
-610 3 -475 2 -481 -82 -526 -38 -20 -45 -16 -67 35 -13 32 -54 89 -92 126
l-69 69 33 128 c92 357 -39 698 -267 698 -154 0 -478 -167 -679 -349 l-96 -87
67 -197 c102 -299 102 -301 123 -267 25 40 33 25 49 -86 13 -94 13 -96 -28
-74 -24 12 -90 23 -147 24 -73 1 -92 6 -64 17 34 14 35 16 5 18 -19 0 -35 15
-35 31 0 17 -10 30 -22 30 -16 0 -15 9 2 30 14 17 16 30 5 30 -11 0 -20 24
-20 52 0 29 -11 59 -25 68 -19 12 -19 18 0 30 15 9 17 20 5 27 -30 20 -51 103
-26 103 13 0 10 18 -9 47 -16 25 -24 53 -16 61 8 8 4 21 -10 29 -13 9 -26 60
-28 114 -2 55 -13 106 -25 114 -14 10 -8 26 16 44 34 26 33 28 -20 36 l-57 7
50 23 c38 17 41 23 14 24 -20 0 -31 9 -25 20 6 10 2 24 -11 32 -16 10 -15 18
3 29 17 11 14 19 -13 28 -31 9 -37 29 -35 102 2 56 -6 90 -20 90 -13 0 -10 9
7 19 24 16 20 23 -20 39 -39 15 -42 20 -13 21 29 1 33 7 16 28 -13 15 -17 32
-10 39 7 7 1 28 -14 46 -15 17 -29 56 -31 85 -6 98 -8 105 -28 93 -11 -7 -20
-3 -20 9 0 11 11 21 25 21 18 1 17 5 -3 18 -15 10 -21 27 -14 39 8 12 5 40 -7
61 -15 28 -14 41 4 49 19 8 19 14 -2 29 -18 12 -20 23 -6 32 11 7 17 31 13 53
-11 55 9 102 35 86 13 -8 17 -2 10 17 -14 36 14 86 49 87 14 0 24 12 21 26
-13 60 160 133 295 124 17 -1 82 -2 145 -2 77 -1 119 -10 130 -29 17 -30 105
-20 105 12 0 30 30 20 76 -23 25 -23 55 -35 68 -26 33 20 301 24 327 4 12 -9
95 -18 185 -21 90 -3 164 -13 164 -22 0 -9 9 -11 20 -4 11 7 21 1 22 -14 1
-20 3 -20 11 -1 6 14 20 20 31 13 11 -7 28 -1 38 14 15 24 21 23 37 -2 13 -19
58 -32 125 -35 380 -17 448 -29 422 -72 -8 -13 2 -10 22 6 28 23 38 23 51 3
12 -19 18 -18 28 6 6 18 21 32 32 32 11 0 15 -13 8 -30 -9 -25 17 -29 176 -23
199 7 244 1 224 -31 -7 -13 3 -12 27 1 26 14 67 14 125 1 47 -11 103 -14 123
-7 23 7 38 2 38 -12 0 -18 7 -18 27 -1 30 25 213 25 213 0 0 -9 16 -16 35 -16
107 -2 158 -8 188 -24 22 -11 41 -7 58 13 17 21 32 24 46 10 14 -14 29 -13 47
2 20 17 26 14 26 -13 0 -25 9 -30 35 -19 19 9 188 18 375 20 213 2 374 13 430
29 179 53 387 73 826 79 31 1 51 9 45 19 -13 21 115 42 279 45 66 1 131 11
145 21 25 21 233 26 264 6 10 -6 27 5 38 24 20 35 42 39 263 44 79 1 120 9
103 19 -37 24 67 43 172 31 45 -5 87 -1 94 10 6 10 42 15 79 11 44 -6 76 2 92
21 28 33 70 42 50 10 -7 -11 7 -20 30 -20 23 0 37 9 30 20 -7 11 4 21 24 23
20 1 70 5 111 9 41 3 75 -2 75 -13 0 -10 10 -19 21 -19 12 0 16 9 9 20 -7 11
4 21 24 23 55 3 104 12 261 43 79 16 140 21 134 12 -6 -10 3 -18 20 -18 17 0
31 10 31 22 0 12 14 17 30 11 17 -7 30 -3 30 7 0 10 25 18 55 17 115 -4 254
19 262 43 6 19 11 19 24 -1 13 -21 25 -20 62 5 44 29 48 29 60 -11 7 -24 14
-32 15 -18z m-1455 -556 c77 -21 213 -153 184 -178 -10 -7 -50 -37 -91 -67
l-73 -54 -60 60 c-52 52 -73 60 -150 55 -49 -3 -86 -9 -81 -14 5 -4 -14 -31
-41 -60 -238 -249 -89 -703 152 -462 78 78 193 97 229 38 71 -115 -435 -363
-554 -271 -361 279 44 1076 485 953z m-3787 -432 c159 -101 32 -747 -147 -747
-50 0 -32 -29 52 -80 44 -28 116 -95 159 -150 l78 -100 -84 -74 c-104 -92 -96
-93 -145 8 -37 77 -241 271 -262 250 -5 -5 0 -48 11 -97 11 -48 24 -142 30
-208 l11 -122 -90 -43 -89 -43 -2 49 c-2 28 -5 57 -7 65 -2 8 -11 159 -19 335
-9 176 -19 343 -22 370 -3 28 -6 107 -8 177 -2 108 -6 124 -30 104 -36 -30
-47 -11 -63 112 l-13 100 101 44 c230 99 432 118 539 50z m-1068 -372 c42
-200 194 -745 261 -935 l48 -138 -89 -50 -90 -50 -19 50 c-10 28 -19 63 -19
78 0 52 -44 55 -138 11 l-94 -44 7 -123 c8 -124 7 -124 -66 -170 -103 -66 -98
-95 -106 705 l-7 725 127 52 c70 29 132 52 139 53 6 1 27 -73 46 -164z m4213
-77 c45 -170 225 -232 426 -148 115 48 189 39 255 -32 112 -120 29 -253 -248
-398 -122 -64 -188 -112 -215 -157 -72 -119 -265 -177 -339 -103 -76 76 47
215 207 234 196 23 503 178 543 273 55 130 -31 173 -227 112 -225 -70 -420 2
-453 167 -7 35 -17 80 -23 99 -6 22 1 35 21 35 19 0 39 -31 53 -82z m-5050
-142 c151 -69 191 -439 72 -680 -37 -74 -27 -116 29 -116 40 0 145 -134 167
-214 69 -248 -47 -618 -250 -803 -94 -85 -385 -274 -399 -259 -27 26 -48 326
-24 339 22 12 20 46 -9 191 -20 97 -69 347 -109 556 -80 422 -77 412 -117 359
-23 -32 -30 -34 -38 -9 -109 337 -123 287 120 451 277 185 439 239 558 185z"/>
<path d="M5929 4085 c-122 -286 -354 -1246 -301 -1245 12 1 85 17 161 37 l140
35 21 89 c26 107 130 149 130 52 0 -105 8 -109 169 -74 189 40 177 9 142 361
-17 168 -31 421 -31 563 l0 257 -200 0 -199 0 -32 -75z m354 -145 c-4 -143 20
-523 48 -760 l13 -110 -92 -21 c-108 -25 -112 -23 -112 64 0 138 -221 93 -252
-51 -17 -84 -22 -89 -113 -112 -52 -13 -95 -20 -95 -14 0 34 172 679 236 884
l78 250 118 12 c185 18 175 27 171 -142z"/>
<path d="M6053 3827 c-7 -8 -13 -50 -14 -95 0 -45 -21 -145 -48 -222 -56 -166
-56 -166 53 -151 l86 11 -8 140 c-4 77 -9 163 -12 190 -2 28 -5 70 -7 95 -3
44 -24 58 -50 32z"/>
<path d="M5039 4099 c-237 -48 -339 -92 -339 -146 1 -158 28 -313 55 -313 24
0 27 -23 18 -125 -7 -69 -14 -188 -16 -265 -1 -87 -13 -152 -31 -172 -16 -20
-33 -103 -40 -208 l-12 -176 101 13 c569 76 908 444 713 774 l-42 70 46 72
c138 219 73 487 -123 501 -27 1 -74 5 -105 7 -30 1 -131 -13 -225 -32z m382
-89 c134 -70 75 -379 -84 -434 -61 -21 -77 -56 -25 -56 189 0 190 -373 1 -533
-107 -91 -529 -238 -568 -198 -18 18 23 211 45 211 17 0 28 74 37 255 8 140
19 318 26 395 12 130 11 138 -20 112 -44 -36 -48 -30 -56 88 l-6 99 180 44
c214 53 388 59 470 17z"/>
<path d="M5005 3825 c-100 -9 -109 -33 -23 -63 44 -15 58 -31 51 -56 -52 -190
-38 -210 99 -148 95 43 148 109 148 182 0 97 -33 107 -275 85z m189 -98 c8
-24 -46 -87 -75 -87 -22 0 -26 87 -5 107 20 20 71 7 80 -20z"/>
<path d="M5029 3361 c-35 -14 -43 -37 -46 -134 -3 -64 -9 -133 -15 -152 -21
-71 152 -22 246 69 149 144 17 298 -185 217z m160 -79 c20 -32 -12 -83 -71
-113 l-58 -30 0 67 c0 88 89 140 129 76z"/>
<path d="M4125 3956 l-365 -102 0 -122 c1 -173 20 -276 51 -265 19 8 28 -59
38 -273 13 -291 49 -718 62 -732 4 -4 91 29 193 74 102 44 234 97 293 117 120
41 137 68 131 204 -2 51 -5 126 -6 166 l-2 74 -155 -48 c-85 -27 -157 -49
-160 -49 -3 0 -5 18 -5 41 0 45 76 85 205 109 83 16 84 20 75 310 -4 135 1
133 -255 52 -33 -11 -45 -7 -45 16 0 40 81 81 225 113 63 14 116 35 117 47 28
356 28 372 -2 371 -16 -1 -194 -47 -395 -103z m341 -101 c-14 -124 -6 -117
-193 -164 l-149 -37 -9 -122 c-13 -157 -7 -161 136 -102 168 69 169 69 169
-71 0 -79 -9 -123 -25 -127 -14 -4 -81 -23 -150 -43 l-125 -35 0 -137 c0 -75
3 -137 7 -137 3 0 59 21 125 48 225 90 211 93 204 -49 l-6 -124 -110 -34 c-60
-19 -170 -62 -243 -96 l-132 -60 -12 88 c-7 48 -18 277 -26 508 -13 395 -15
419 -50 408 -32 -10 -37 1 -40 80 -2 50 -4 101 -5 114 -1 13 104 52 238 88
132 37 263 75 290 86 106 43 119 33 106 -82z"/>
<path d="M7715 3998 c-76 -184 -180 -619 -224 -933 l-11 -85 65 0 c36 0 111 6
167 13 l103 12 25 112 26 113 26 -60 c14 -33 27 -80 27 -104 1 -67 31 -73 187
-35 216 52 221 78 84 383 l-47 104 209 205 c114 112 201 211 193 218 -25 21
-246 99 -281 99 -18 0 -75 -42 -127 -93 l-94 -93 21 84 c26 104 35 98 -158
114 l-163 14 -28 -68z m280 -27 c10 -8 -81 -224 -107 -253 -30 -33 -39 -118
-13 -118 9 0 96 81 195 180 99 99 194 180 212 180 48 0 161 -43 154 -59 -17
-40 -347 -321 -378 -321 -53 0 -62 -30 -20 -68 38 -34 132 -228 162 -332 16
-55 13 -58 -77 -79 -130 -31 -131 -31 -148 43 -39 166 -177 376 -160 244 2
-21 -9 -102 -26 -180 l-31 -143 -92 -12 c-51 -7 -96 -9 -101 -5 -15 15 91 509
157 734 l61 212 104 -10 c57 -5 105 -11 108 -13z"/>
<path d="M3190 3420 c-22 -10 -74 -18 -115 -19 -91 -1 -97 -29 -13 -59 l62
-21 -7 -201 c-8 -231 -8 -231 121 -105 199 192 163 494 -48 405z m86 -104 c37
-37 29 -105 -21 -168 l-45 -57 -12 109 c-15 142 12 182 78 116z"/>
<path d="M2245 3036 c-17 -21 -19 -48 -5 -95 10 -36 17 -168 14 -294 -2 -125
2 -227 10 -227 30 0 156 68 156 84 0 9 -26 108 -58 221 -32 113 -66 236 -75
273 -15 57 -21 63 -42 38z"/>
<path d="M989 2744 c-33 -29 -50 -47 -37 -38 14 9 31 6 38 -6 9 -15 23 -10 40
14 15 20 37 37 48 39 48 5 51 8 22 27 -41 26 -42 26 -111 -36z"/>
<path d="M1233 2628 c-53 -28 -116 -55 -138 -59 -86 -17 -82 -47 10 -70 l91
-23 13 -147 c8 -81 9 -157 1 -168 -38 -63 58 -6 144 85 250 264 164 535 -121
382z m183 -108 c5 -47 -88 -220 -118 -220 -37 0 -41 228 -5 255 56 40 116 23
123 -35z"/>
<path d="M1427 2213 c-12 -15 -48 -45 -80 -69 -54 -41 -55 -43 -12 -43 25 -1
45 9 45 20 0 12 9 16 20 9 11 -7 34 1 50 17 16 16 40 33 53 37 29 10 4 56 -29
55 -13 0 -34 -12 -47 -26z"/>
<path d="M1388 1948 c-54 -28 -101 -55 -105 -58 -3 -4 9 -86 27 -183 19 -97
36 -199 40 -227 15 -122 272 93 302 253 38 205 -88 308 -264 215z m204 -138
c19 -77 -139 -289 -183 -246 -27 28 -33 268 -6 289 72 59 169 37 189 -43z"/>
<path d="M1561 1469 c-49 -48 -84 -92 -79 -98 13 -12 178 148 178 172 0 24 -1
24 -99 -74z"/>
<path d="M7743 1834 c-54 -58 -57 -93 -3 -44 22 20 46 30 54 23 19 -19 -95
-133 -133 -132 -26 0 -25 4 4 21 35 20 32 104 -5 145 -12 12 -119 -27 -155
-57 -3 -2 5 -49 17 -104 23 -97 22 -104 -39 -192 -75 -108 -77 -125 -20 -156
46 -24 49 -22 110 75 21 34 24 33 44 -17 21 -53 23 -54 97 -28 88 30 88 31 38
158 l-38 96 83 85 c93 95 97 108 48 145 -47 36 -51 35 -102 -18z m-130 -76
c-26 -36 -26 -50 -1 -111 29 -68 28 -70 -46 -156 -92 -105 -111 -101 -39 8 57
86 67 158 31 225 -23 43 1 75 58 76 21 0 20 -9 -3 -42z"/>
<path d="M7245 1840 c-149 -17 -144 -12 -147 -111 -1 -44 -16 -153 -33 -244
-38 -199 -48 -187 131 -159 137 22 148 27 158 78 15 75 6 85 -69 79 -37 -4
-65 3 -65 15 0 12 32 22 71 22 62 0 71 7 82 60 17 84 13 90 -53 83 -33 -3 -60
4 -60 15 0 12 30 22 68 22 75 0 102 24 123 105 15 62 21 61 -206 35z m112 -62
c-15 -10 -54 -18 -88 -18 -34 0 -72 -11 -85 -24 -17 -17 -30 -18 -45 -3 -33
33 20 63 121 71 103 7 136 -2 97 -26z m-197 -235 c-13 -51 -28 -109 -34 -128
-5 -20 -16 -31 -25 -26 -17 11 28 257 54 298 26 43 30 -49 5 -144z m160 78 c0
-29 -39 -46 -75 -32 -29 11 -30 16 -4 32 38 24 79 24 79 0z m-20 -180 c0 -26
-75 -47 -103 -29 -17 10 -12 20 14 30 55 21 89 21 89 -1z"/>
<path d="M6850 1812 c-135 -60 -164 -149 -119 -364 12 -56 7 -63 -54 -80 -81
-23 -118 -208 -42 -208 214 0 344 205 275 432 -11 35 -3 44 45 54 52 10 105
102 105 181 0 23 -148 12 -210 -15z m130 -29 c0 -9 -36 -31 -80 -48 -89 -35
-132 -111 -110 -195 45 -174 -7 -280 -139 -280 -39 0 0 60 49 77 80 28 91 64
59 195 -24 101 -23 113 15 164 59 80 206 142 206 87z"/>
<path d="M5894 1783 c-15 -18 -49 -71 -74 -117 -54 -98 -71 -96 -90 14 -7 44
-22 85 -33 92 -25 15 -161 -89 -146 -113 6 -10 -8 -106 -31 -212 -47 -219 -48
-214 48 -196 63 12 72 21 72 71 0 32 9 58 20 58 11 0 20 -17 20 -39 0 -56 34
-69 60 -22 28 53 59 53 46 1 -9 -32 -1 -40 37 -40 80 1 97 27 140 212 23 98
55 203 70 233 15 30 25 55 22 55 -3 0 -34 8 -69 18 -50 15 -69 11 -92 -15z
m63 -38 c-54 -119 -123 -222 -165 -244 -28 -15 -57 -45 -64 -66 -7 -24 -19
-32 -31 -20 -23 23 15 132 40 117 10 -6 56 43 102 108 68 98 145 166 118 105z
m-298 -80 c-9 -30 -32 -109 -50 -175 -47 -176 -52 -186 -64 -152 -14 37 57
348 84 367 39 27 48 15 30 -40z m221 -221 c0 -20 -13 -54 -29 -75 -33 -44 -46
10 -19 79 17 43 48 40 48 -4z"/>
<path d="M6260 1802 c-147 -17 -162 -29 -157 -129 2 -45 -12 -153 -32 -239
-19 -86 -32 -160 -28 -164 6 -6 292 30 310 38 2 1 10 35 17 75 l14 74 -85 -12
c-61 -8 -81 -5 -71 12 8 13 41 23 74 23 46 0 64 12 79 53 30 78 13 102 -62 91
-45 -6 -60 -2 -51 13 8 13 46 23 84 23 64 0 128 75 128 149 0 13 -63 10 -220
-7z m114 -55 c-7 -6 -47 -19 -88 -27 -42 -8 -92 -22 -111 -30 -25 -10 -35 -5
-35 17 0 34 41 48 160 58 76 6 93 2 74 -18z m-201 -229 c-18 -56 -33 -115 -33
-129 0 -15 -10 -33 -23 -41 -17 -10 -19 10 -9 74 26 166 53 245 77 221 15 -15
12 -50 -12 -125z m167 63 c0 -25 -74 -47 -102 -30 -16 10 -14 19 5 31 36 23
97 23 97 -1z m-45 -186 c-10 -30 -95 -46 -95 -18 0 21 33 39 77 41 14 1 23 -9
18 -23z"/>
<path d="M4996 1745 c-113 -7 -115 -8 -135 -81 -31 -110 -28 -118 39 -108 59
8 60 7 39 -48 -26 -69 -79 -316 -79 -369 0 -29 11 -37 45 -30 25 4 63 9 86 10
35 1 46 27 77 186 51 253 61 275 122 275 50 0 61 15 99 135 15 49 13 50 -293
30z m224 -43 c0 -24 -74 -41 -181 -42 -50 0 -103 -11 -117 -25 -21 -20 -25
-17 -19 15 9 48 317 99 317 52z m-188 -167 c-7 -25 -30 -111 -51 -192 -43
-164 -61 -198 -61 -111 1 60 52 299 72 330 22 37 52 17 40 -27z"/>
<path d="M5350 1735 c-18 -54 -87 -350 -100 -431 l-14 -86 57 13 c31 7 67 15
80 19 12 4 32 65 45 136 12 70 36 172 52 226 42 139 40 148 -41 148 -38 0 -74
-11 -79 -25z m47 -130 c-20 -63 -46 -155 -59 -205 -31 -121 -47 -67 -19 65 42
195 62 255 88 255 20 0 18 -26 -10 -115z"/>
<path d="M3685 1695 c-154 -20 -188 -52 -156 -151 6 -21 -6 -113 -28 -205 -48
-200 -60 -185 124 -157 128 19 153 29 163 65 23 86 15 96 -63 90 -43 -4 -73 2
-70 13 2 11 35 23 73 26 50 5 71 18 80 50 21 79 14 94 -48 94 -33 0 -60 9 -60
20 0 11 35 20 78 20 70 0 80 7 100 63 38 110 52 105 -193 72z m129 -47 c-7 -7
-51 -20 -98 -29 -47 -9 -103 -23 -124 -31 -27 -10 -35 -7 -28 13 5 15 31 34
57 41 63 18 209 22 193 6z m-213 -226 c-11 -22 -21 -60 -21 -86 -1 -52 -32
-111 -50 -93 -13 13 41 268 65 304 24 37 30 -81 6 -125z m154 53 c-10 -30 -95
-46 -95 -18 0 18 33 33 87 41 9 1 13 -9 8 -23z m-20 -180 c-10 -30 -115 -46
-115 -18 0 19 39 36 97 41 14 1 23 -9 18 -23z"/>
<path d="M4046 1695 c-41 -63 -220 -506 -209 -518 30 -30 139 8 161 56 23 51
62 47 62 -7 0 -24 14 -28 64 -18 79 16 69 -18 82 267 l12 245 -78 0 c-43 0
-85 -11 -94 -25z m100 -28 c7 -7 -8 -28 -33 -48 -25 -20 -62 -75 -82 -123 -19
-47 -50 -120 -67 -162 -38 -92 -76 -123 -56 -46 49 198 192 425 238 379z m-6
-236 c0 -81 -42 -123 -94 -94 -34 19 -34 21 -2 34 19 7 41 43 48 81 15 83 48
70 48 -21z"/>
<path d="M4374 1705 c-53 -90 -114 -516 -74 -512 196 22 222 31 241 80 33 86
24 110 -36 103 -66 -7 -66 36 -3 219 21 61 38 114 38 118 0 14 -158 6 -166 -8z
m23 -216 c-54 -231 -61 -250 -72 -201 -10 41 47 298 79 359 37 70 35 19 -7
-158z"/>
<path d="M3060 1662 c-71 -12 -118 -146 -63 -180 12 -7 -5 -96 -43 -226 -34
-118 -58 -219 -53 -223 27 -26 169 21 175 57 14 85 22 96 54 70 17 -14 30 -42
30 -62 0 -41 32 -47 138 -25 73 14 76 32 22 137 l-40 78 58 61 c221 234 93
379 -278 313z m294 -53 c4 -14 -35 -21 -109 -20 -63 0 -140 -6 -170 -14 -67
-19 -76 18 -10 45 59 24 280 16 289 -11z m-284 -243 c-41 -163 -91 -285 -104
-252 -9 26 65 311 98 373 37 70 40 15 6 -121z m184 121 c8 -22 -4 -47 -36 -72
-56 -46 -78 -10 -39 64 27 50 58 53 75 8z m86 11 c0 -72 -175 -236 -221 -208
-34 22 -20 42 52 76 39 19 86 61 105 94 34 61 64 78 64 38z"/>
</g>
</svg>
