<svg xmlns="http://www.w3.org/2000/svg" width="348" height="192" viewBox="0 0 348 192" version="1.1"><path d="M 253.591 3.573 C 245.867 6.403, 239.379 13.566, 237.607 21.218 L 236.978 23.935 232.239 21.176 C 223.498 16.087, 214.888 12.989, 202.526 10.486 C 177.956 5.511, 162.850 8.375, 147.231 20.967 C 141.325 25.730, 140.833 25.937, 138.712 24.547 C 135.814 22.648, 122.445 19.491, 108.659 17.449 C 95.782 15.543, 90.637 16.361, 82.944 21.537 L 78.037 24.840 70.269 23.418 C 58.181 21.205, 38.997 20.461, 33.527 21.992 C 25.122 24.346, 18.153 31.497, 15.578 40.412 C 9.722 60.682, 2.416 126.516, 3.138 152.500 C 3.482 164.842, 3.656 165.778, 6.584 171 C 9.923 176.955, 16.436 182.169, 22.823 184.001 C 29.532 185.925, 50.914 190, 54.302 190 C 59.747 190, 67.783 187.129, 71.519 183.849 L 75.010 180.784 83.755 182.463 C 88.565 183.387, 98.215 184.399, 105.200 184.713 C 117.556 185.268, 118.052 185.209, 123.467 182.560 C 130.448 179.144, 135.433 172.892, 137.095 165.467 L 138.301 160.076 141.033 162.374 C 144.754 165.505, 159.070 172.483, 167 175.030 C 170.575 176.178, 177.100 177.600, 181.500 178.189 C 199.722 180.628, 220.752 172.406, 236.062 156.856 L 241.791 151.038 247.645 157.346 C 258.693 169.251, 265.817 172.114, 279.384 170.101 C 295.586 167.698, 325.601 161.916, 329.722 160.404 C 335.280 158.366, 342.306 150.549, 343.992 144.529 C 345.704 138.414, 344.931 133.097, 340.003 117.093 C 334.996 100.832, 332.229 95.159, 327.340 91.129 C 323.445 87.918, 316.294 85, 312.322 85 C 310.733 85, 310 84.418, 310 83.158 C 310 80.664, 314.631 53.756, 317.083 42 C 319.885 28.566, 318.371 21.752, 310.899 14.178 C 305.979 9.190, 303.653 8.336, 286.024 5.035 C 268.423 1.740, 259.672 1.345, 253.591 3.573 M 259.735 24.750 C 256.013 28.885, 247.872 84.589, 247.641 107.500 L 247.500 121.500 252.385 128.752 C 255.071 132.741, 259.948 138.928, 263.223 142.502 C 268.732 148.515, 269.488 148.999, 273.339 148.986 C 277.712 148.972, 320.331 141.532, 322.020 140.488 C 323.573 139.528, 323.182 135.853, 320.568 126.830 C 316.220 111.827, 314.102 107.064, 311.486 106.407 C 310.183 106.080, 304.302 106.567, 298.418 107.490 C 289.554 108.880, 287.567 108.939, 286.822 107.834 C 285.162 105.373, 289.050 73.915, 294.565 45.192 C 296.920 32.923, 297.111 30.692, 295.906 29.541 C 294.587 28.282, 268.466 23, 263.559 23 C 262.322 23, 260.601 23.788, 259.735 24.750 M 174.274 30.384 C 157.607 34.591, 143.600 54.428, 138.569 80.951 C 136.535 91.674, 136.492 112.630, 138.489 120.297 C 140.607 128.429, 145.409 137.428, 150.014 141.898 C 158.096 149.741, 176.078 157, 187.424 157 C 204.122 157, 221.709 145.425, 230.016 128.968 C 232.972 123.113, 233.204 121.989, 232.686 116.028 C 232.037 108.559, 225.601 87.744, 223.198 85.341 C 221.855 83.998, 220.103 83.839, 212.545 84.372 C 199.255 85.310, 185.886 87.686, 184.155 89.417 C 182.801 90.770, 182.862 92.059, 184.723 101.497 C 185.869 107.308, 187.355 112.723, 188.026 113.531 C 188.758 114.414, 190.993 115, 193.622 115 C 198.831 115, 199.119 116.152, 194.894 120.099 C 190.535 124.171, 184.019 124.243, 181.182 120.250 C 173.437 109.354, 176.995 74.954, 187.140 62.646 C 190.442 58.640, 192.866 58.073, 195.246 60.750 C 197.021 62.747, 198.986 69.237, 198.994 73.128 C 199.005 77.913, 200.625 78.278, 214.175 76.546 C 227.643 74.824, 231.519 73.685, 232.500 71.158 C 233.832 67.730, 234.191 56.354, 233.095 52.317 C 230.846 44.034, 218.246 35.888, 201.709 32.026 C 190.336 29.370, 180.599 28.787, 174.274 30.384 M 95.058 39.430 C 93.529 41.272, 91.389 54.566, 90.016 70.744 C 89.420 77.760, 88.654 85.975, 88.314 89 L 87.694 94.500 86.403 90.224 C 85.693 87.873, 83.737 77.748, 82.056 67.724 C 78.604 47.144, 78.444 46.849, 69.719 45.057 C 62.034 43.479, 50.216 42.066, 44.405 42.031 C 37.805 41.991, 36.618 43.383, 34.623 53.500 C 28.854 82.766, 22.258 149.960, 24.342 158.237 C 24.722 159.743, 26.063 161.651, 27.324 162.477 C 30.452 164.526, 48.925 168.191, 54.209 167.810 L 58.500 167.500 59.146 149 C 60.080 122.254, 61.099 107.687, 61.969 108.655 C 62.387 109.120, 63.741 114, 64.979 119.500 C 68.468 134.998, 74.944 155.268, 77.173 157.663 C 78.613 159.211, 81.646 160.274, 87.843 161.402 C 98.789 163.395, 113.119 164.383, 114.741 163.256 C 115.571 162.679, 116.318 156.790, 116.999 145.447 C 118.670 117.617, 122.655 85.082, 127.575 59.115 C 128.969 51.753, 129.897 45.173, 129.635 44.492 C 128.913 42.609, 107.832 38, 99.939 38 C 97.907 38, 95.711 38.644, 95.058 39.430" stroke="none" fill="#040404" fill-rule="evenodd"/><path d="M 259.735 24.750 C 256.013 28.885, 247.872 84.589, 247.641 107.500 L 247.500 121.500 252.385 128.752 C 255.071 132.741, 259.948 138.928, 263.223 142.502 C 268.732 148.515, 269.488 148.999, 273.339 148.986 C 277.712 148.972, 320.331 141.532, 322.020 140.488 C 323.573 139.528, 323.182 135.853, 320.568 126.830 C 316.220 111.827, 314.102 107.064, 311.486 106.407 C 310.183 106.080, 304.302 106.567, 298.418 107.490 C 289.554 108.880, 287.567 108.939, 286.822 107.834 C 285.162 105.373, 289.050 73.915, 294.565 45.192 C 296.920 32.923, 297.111 30.692, 295.906 29.541 C 294.587 28.282, 268.466 23, 263.559 23 C 262.322 23, 260.601 23.788, 259.735 24.750 M 174.274 30.384 C 157.607 34.591, 143.600 54.428, 138.569 80.951 C 136.535 91.674, 136.492 112.630, 138.489 120.297 C 140.607 128.429, 145.409 137.428, 150.014 141.898 C 158.096 149.741, 176.078 157, 187.424 157 C 204.122 157, 221.709 145.425, 230.016 128.968 C 232.972 123.113, 233.204 121.989, 232.686 116.028 C 232.037 108.559, 225.601 87.744, 223.198 85.341 C 221.855 83.998, 220.103 83.839, 212.545 84.372 C 199.255 85.310, 185.886 87.686, 184.155 89.417 C 182.801 90.770, 182.862 92.059, 184.723 101.497 C 185.869 107.308, 187.355 112.723, 188.026 113.531 C 188.758 114.414, 190.993 115, 193.622 115 C 198.831 115, 199.119 116.152, 194.894 120.099 C 190.535 124.171, 184.019 124.243, 181.182 120.250 C 173.437 109.354, 176.995 74.954, 187.140 62.646 C 190.442 58.640, 192.866 58.073, 195.246 60.750 C 197.021 62.747, 198.986 69.237, 198.994 73.128 C 199.005 77.913, 200.625 78.278, 214.175 76.546 C 227.643 74.824, 231.519 73.685, 232.500 71.158 C 233.832 67.730, 234.191 56.354, 233.095 52.317 C 230.846 44.034, 218.246 35.888, 201.709 32.026 C 190.336 29.370, 180.599 28.787, 174.274 30.384 M 95.058 39.430 C 93.529 41.272, 91.389 54.566, 90.016 70.744 C 89.420 77.760, 88.654 85.975, 88.314 89 L 87.694 94.500 86.403 90.224 C 85.693 87.873, 83.737 77.748, 82.056 67.724 C 78.604 47.144, 78.444 46.849, 69.719 45.057 C 62.034 43.479, 50.216 42.066, 44.405 42.031 C 37.805 41.991, 36.618 43.383, 34.623 53.500 C 28.854 82.766, 22.258 149.960, 24.342 158.237 C 24.722 159.743, 26.063 161.651, 27.324 162.477 C 30.452 164.526, 48.925 168.191, 54.209 167.810 L 58.500 167.500 59.146 149 C 60.080 122.254, 61.099 107.687, 61.969 108.655 C 62.387 109.120, 63.741 114, 64.979 119.500 C 68.468 134.998, 74.944 155.268, 77.173 157.663 C 78.613 159.211, 81.646 160.274, 87.843 161.402 C 98.789 163.395, 113.119 164.383, 114.741 163.256 C 115.571 162.679, 116.318 156.790, 116.999 145.447 C 118.670 117.617, 122.655 85.082, 127.575 59.115 C 128.969 51.753, 129.897 45.173, 129.635 44.492 C 128.913 42.609, 107.832 38, 99.939 38 C 97.907 38, 95.711 38.644, 95.058 39.430" stroke="none" fill="#f9f9f9" fill-rule="evenodd"/></svg>