<?xml version="1.0" standalone="no"?>
<!DOCTYPE svg PUBLIC "-//W3C//DTD SVG 20010904//EN"
 "http://www.w3.org/TR/2001/REC-SVG-20010904/DTD/svg10.dtd">
<svg version="1.0" xmlns="http://www.w3.org/2000/svg"
 width="420.000000pt" height="420.000000pt" viewBox="0 0 420.000000 420.000000"
 preserveAspectRatio="xMidYMid meet">
<metadata>
Created by potrace 1.10, written by Peter Selinger 2001-2011
</metadata>
<g transform="translate(0.000000,420.000000) scale(0.100000,-0.100000)"
fill="#000000" stroke="none">
<path d="M0 2100 l0 -2100 2100 0 2100 0 0 2100 0 2100 -2100 0 -2100 0 0
-2100z m1859 1226 c9 -11 12 -141 12 -514 -1 -426 1 -501 14 -512 10 -8 61
-11 181 -8 l166 3 34 39 34 39 2 216 3 216 190 0 190 0 3 -240 c2 -201 0 -248
-14 -290 -19 -57 -51 -123 -70 -146 -18 -20 -18 -58 0 -78 21 -26 53 -92 70
-150 13 -42 16 -102 16 -292 l0 -239 -192 2 -193 3 -3 216 -2 216 -34 39 -34
39 -166 3 c-123 3 -171 0 -182 -9 -13 -10 -15 -50 -14 -248 1 -130 1 -242 0
-249 0 -10 -42 -12 -192 -10 l-193 3 -3 963 c-1 653 1 969 8 983 10 18 23 19
184 19 139 0 176 -3 185 -14z m-834 -535 c88 -28 114 -41 177 -88 94 -72 134
-127 189 -263 11 -29 14 -130 14 -550 l0 -515 -190 0 -190 0 -5 481 c-6 537 0
498 -76 545 -29 18 -47 19 -206 17 l-173 -3 -5 -520 -5 -520 -192 -3 -193 -2
0 713 c0 393 3 717 7 720 3 4 182 7 397 7 355 0 396 -2 451 -19z m2712 3 c99
-43 121 -56 161 -96 44 -44 55 -61 91 -137 20 -42 21 -59 21 -415 -1 -334 -3
-376 -19 -424 -10 -29 -23 -58 -30 -65 -6 -6 -11 -15 -11 -19 0 -5 -19 -34
-42 -64 -43 -58 -128 -128 -188 -155 -90 -41 -105 -43 -330 -49 l-225 -5 -3
-264 c-1 -175 -6 -269 -13 -278 -9 -10 -53 -13 -189 -13 -153 0 -179 2 -184
16 -8 21 -8 1969 1 1977 3 4 212 7 464 7 401 0 463 -2 496 -16z"/>
<path d="M3170 2395 c-11 -28 -14 -592 -4 -619 5 -14 31 -16 185 -16 154 0
184 2 207 17 64 42 62 30 59 348 l-2 290 -218 3 -217 2 -10 -25z"/>
</g>
</svg>
