<svg xmlns="http://www.w3.org/2000/svg" width="512" height="512" viewBox="0 0 512 512" version="1.1"><path d="M 190.898 91.258 L 187.500 93.516 185.250 97.970 L 183 102.424 183 216.500 L 183 330.576 185.250 335.030 L 187.500 339.484 190.898 341.742 L 194.296 344 209 344 L 223.704 344 227.078 341.726 C 231.449 338.781, 235 333.458, 235 329.852 C 235 326.174, 234.622 326.258, 231.985 330.524 C 230.787 332.463, 228.523 334.713, 226.953 335.524 L 224.099 337 211.784 337 L 199.469 337 196.035 335.158 L 192.601 333.317 190.550 329.408 L 188.500 325.500 188.199 225 C 188.033 169.725, 188.175 122.160, 188.514 119.300 L 189.131 114.101 191.351 110.800 C 192.572 108.985, 195.130 106.734, 197.036 105.798 L 200.500 104.096 211.185 104.048 L 221.870 104 224.685 105.064 C 228.023 106.325, 233 110.852, 233 112.628 C 233 113.318, 233.450 114.160, 234 114.500 L 235 115.118 235 107.707 L 235 100.296 232.726 96.922 C 231.476 95.066, 228.934 92.524, 227.078 91.274 L 223.704 89 209 89 L 194.296 89 190.898 91.258 M 296.242 163.109 L 291.984 165.217 289.537 169.320 C 286.587 174.267, 286.712 174.504, 291.088 172.254 L 294.500 170.500 306.500 170.500 L 318.500 170.500 322.144 172.766 L 325.787 175.032 327.394 178.417 L 329 181.802 329 186.987 L 329 192.171 324.009 201.835 C 315.714 217.896, 300.325 235.549, 287.604 243.597 C 285.085 245.191, 282.821 247.024, 282.573 247.670 C 282.078 248.961, 281.742 248.466, 308.067 285.275 C 318.205 299.451, 327.080 312.051, 327.790 313.275 L 329.080 315.500 328.760 322.201 L 328.440 328.903 325.970 331.546 C 324.612 333, 322.285 334.822, 320.800 335.595 L 318.099 337 306.597 337 L 295.094 337 292.543 335.838 C 286.880 333.258, 289.089 338.558, 295.080 341.925 L 298.772 344 313.238 344 L 327.704 344 331.048 341.747 C 332.887 340.507, 335.296 337.945, 336.402 336.052 L 338.412 332.610 338.412 325.824 L 338.412 319.038 335.361 314.769 C 333.683 312.421, 324.295 299.250, 314.498 285.500 C 304.702 271.750, 294.732 257.828, 292.343 254.562 C 289.954 251.297, 288.016 247.922, 288.036 247.062 L 288.071 245.500 295.377 240.215 C 313.707 226.958, 333.645 201.174, 337.961 185.146 L 339.106 180.892 338.436 176.419 C 338.067 173.960, 336.802 170.496, 335.624 168.723 L 333.484 165.500 329.030 163.250 L 324.576 161 312.538 161.001 L 300.500 161.002 296.242 163.109 M 25.500 164.103 C 21.922 165.203, 19.245 167.383, 16.228 171.654 L 14 174.809 14 253.918 L 14 333.028 16.250 336.468 C 17.488 338.359, 20.136 340.828, 22.136 341.954 L 25.772 344 39.936 344 L 54.099 344 56.989 342.506 C 59.733 341.087, 63 337.438, 63 335.792 C 63 335.373, 61.537 335.921, 59.750 337.011 L 56.500 338.993 43.684 338.996 L 30.869 339 28.684 337.878 C 25.473 336.228, 21 331.825, 21 330.313 C 21 329.591, 20.550 329, 20 329 L 19 329 19 254.500 L 19 180 20 180 C 20.550 180, 21 179.409, 21 178.687 C 21 177.175, 25.473 172.772, 28.684 171.122 L 30.869 170 77.684 170.012 L 124.500 170.024 129.842 171.446 C 144.940 175.464, 157.298 188.312, 161.636 204.500 L 162.976 209.500 162.940 268.500 L 162.904 327.500 161.202 330.912 C 160.266 332.788, 158.231 335.263, 156.681 336.412 L 153.861 338.500 141.800 338.837 C 135.166 339.022, 128.197 338.884, 126.314 338.531 L 122.890 337.889 118.960 333.840 L 115.031 329.791 116.154 333.145 C 117.492 337.142, 120.493 340.666, 124.200 342.595 L 126.901 344 141.016 344 L 155.131 344 157.316 342.875 C 160.963 340.996, 164.099 337.680, 165.587 334.128 L 167 330.756 166.964 268.628 L 166.929 206.500 165.573 201 C 163.120 191.053, 159.107 184.160, 151.396 176.646 L 146.500 171.877 139.500 168.460 L 132.500 165.042 126 164.029 L 119.500 163.015 74 163.098 L 28.500 163.180 25.500 164.103 M 352.500 164.162 C 351.400 164.768, 349.053 166.627, 347.286 168.293 L 344.071 171.323 342.976 176.412 L 341.882 181.500 342.191 293.574 L 342.500 405.647 344.884 409.126 C 346.196 411.040, 348.777 413.595, 350.620 414.803 L 353.972 417 368.806 417 L 383.640 417 387.682 413.540 C 391.550 410.229, 394.900 404.567, 393.700 403.367 C 393.387 403.054, 391.869 403.968, 390.326 405.399 C 388.783 406.829, 386.953 408, 386.260 408 C 385.567 408, 385 408.450, 385 409 L 385 410 371.500 410 L 358 410 358 409 C 358 408.450, 357.413 408, 356.696 408 C 355.078 408, 349 401.842, 349 400.202 C 349 399.541, 348.550 399, 348 399 L 347 399 347 289.083 C 347 228.629, 347.337 179.017, 347.750 178.833 C 348.163 178.650, 349.259 177.151, 350.186 175.501 C 351.113 173.852, 353.588 171.602, 355.686 170.501 L 359.500 168.500 403 168.177 L 446.500 167.855 453.471 169.058 C 472.601 172.359, 486.550 185.336, 491.533 204.467 L 493 210.098 493 255.500 L 493 300.902 491.509 306.629 C 487.661 321.399, 476.908 333.248, 462.477 338.619 L 457.500 340.471 428.500 340.743 C 398.945 341.021, 395 341.289, 395 343.019 L 395 344 426.345 344 L 457.690 344 463.300 342.149 C 480.328 336.532, 492.946 322.728, 496.594 305.726 L 497.930 299.500 497.957 255.500 L 497.985 211.500 496.955 205 L 495.925 198.500 492.450 191.119 L 488.974 183.738 482.505 177.395 C 475.428 170.456, 469.114 166.786, 460.307 164.492 L 454.580 163 404.540 163.030 L 354.500 163.061 352.500 164.162 M 272.462 197.098 C 267.543 202.153, 237.935 224, 236.005 224 C 235.452 224, 235 224.900, 235 226 C 235 228.873, 236.338 228.521, 243.305 223.817 C 262.467 210.877, 272.960 201.719, 276.611 194.750 C 278.575 191, 278.180 191.224, 272.462 197.098" stroke="none" fill="#ffffff" fill-rule="evenodd"/><path d="M 191.366 89.919 C 187.534 92.255, 183 98.021, 183 100.556 L 183 102.424 185.250 97.970 L 187.500 93.516 190.898 91.258 L 194.296 89 209 89 L 223.704 89 227.078 91.274 C 228.934 92.524, 231.476 95.066, 232.726 96.922 L 235 100.296 235 107.707 L 235 115.118 234 114.500 C 233.450 114.160, 233 113.318, 233 112.628 C 233 110.852, 228.023 106.325, 224.685 105.064 L 221.870 104 211.185 104.048 L 200.500 104.096 197.036 105.798 C 195.130 106.734, 192.572 108.985, 191.351 110.800 L 189.131 114.101 188.514 119.300 C 188.175 122.160, 188.033 169.725, 188.199 225 L 188.500 325.500 190.550 329.408 L 192.601 333.317 196.035 335.158 L 199.469 337 211.784 337 L 224.099 337 226.953 335.524 C 228.523 334.713, 230.787 332.463, 231.985 330.524 C 234.622 326.258, 235 326.174, 235 329.852 C 235 333.458, 231.449 338.781, 227.078 341.726 L 223.704 344 209 344 L 194.296 344 190.898 341.742 L 187.500 339.484 185.250 335.030 L 183 330.576 183 332.836 L 183 335.095 187.952 340.048 L 192.905 345 208.466 345 L 224.027 345 226.213 343.750 C 229.599 341.813, 231.586 339.805, 233.881 336 L 235.993 332.500 235.996 302.917 C 235.998 286.646, 236.282 273.051, 236.627 272.707 C 238.715 270.618, 245.664 277.298, 254.617 290 C 270.893 313.090, 280.867 327.130, 285.391 333.318 L 290.376 340.136 294.526 342.568 L 298.676 345 313.190 345 L 327.704 345 331.078 342.726 C 335.409 339.808, 339.028 334.427, 338.898 331.102 L 338.795 328.500 338.029 331.725 C 336.961 336.218, 334.447 339.757, 330.696 342.044 L 327.500 343.993 313.136 343.996 L 298.772 344 295.080 341.925 C 289.089 338.558, 286.880 333.258, 292.543 335.838 L 295.094 337 306.597 337 L 318.099 337 320.800 335.595 C 322.285 334.822, 324.612 333, 325.970 331.546 L 328.440 328.903 328.760 322.201 L 329.080 315.500 327.790 313.275 C 327.080 312.051, 318.205 299.451, 308.067 285.275 C 281.742 248.466, 282.078 248.961, 282.573 247.670 C 282.821 247.024, 285.085 245.191, 287.604 243.597 C 300.325 235.549, 315.714 217.896, 324.009 201.835 L 329 192.171 329 186.987 L 329 181.802 327.394 178.417 L 325.787 175.032 322.144 172.766 L 318.500 170.500 306.500 170.500 L 294.500 170.500 291.088 172.254 C 286.712 174.504, 286.587 174.267, 289.537 169.320 L 291.984 165.217 296.242 163.109 C 298.584 161.950, 299.915 161.001, 299.200 161.001 C 293.750 160.997, 289.467 165.905, 282.265 180.406 C 275.370 194.287, 268.107 201.503, 246.310 216.127 L 236 223.045 236 161.909 L 236 100.772 233.826 96.904 C 232.630 94.776, 229.940 91.902, 227.847 90.518 L 224.043 88 209.271 88.004 L 194.500 88.007 191.366 89.919 M 328.980 163.250 C 334.002 165.816, 336.846 169.246, 337.998 174.123 L 338.795 177.500 338.898 174.736 L 339 171.972 336.828 168.658 C 334.411 164.971, 328.953 161, 326.302 161 L 324.576 161 328.980 163.250 M 379.820 162.749 C 393.745 162.906, 416.245 162.906, 429.820 162.749 C 443.394 162.592, 432 162.464, 404.500 162.464 C 377 162.464, 365.894 162.592, 379.820 162.749 M 21.389 164.905 C 18.230 166.831, 13.390 172.723, 14.255 173.589 C 14.516 173.849, 15.543 172.819, 16.539 171.300 C 18.997 167.549, 21.915 165.205, 25.500 164.103 L 28.500 163.180 26.500 163.094 C 25.400 163.046, 23.100 163.861, 21.389 164.905 M 122.083 163.359 C 122.313 163.557, 124.750 164.004, 127.500 164.352 L 132.500 164.986 131 164.009 C 129.646 163.126, 121.090 162.503, 122.083 163.359 M 348.230 165.599 C 344.461 168.569, 341.960 172.888, 342.090 176.200 L 342.180 178.500 343.172 175 C 344.297 171.026, 347.123 167.589, 351.500 164.871 L 354.500 163.007 353 163.015 C 352.175 163.019, 350.029 164.182, 348.230 165.599 M 460.735 164.542 C 469.136 166.804, 475.583 170.608, 482.485 177.375 L 488.933 183.698 492.467 191.071 C 494.410 195.126, 496 197.732, 496 196.862 C 496 195.993, 494.561 192.490, 492.801 189.079 L 489.603 182.877 482.537 176.188 C 474.278 168.370, 464.172 162.920, 458.203 163.066 L 455.500 163.132 460.735 164.542 M 139.616 168.446 L 146.500 171.893 151.396 176.654 C 159.101 184.150, 163.119 191.049, 165.573 201 L 166.929 206.500 166.964 268.628 L 167 330.756 165.587 334.128 C 164.099 337.680, 160.963 340.996, 157.316 342.875 L 155.131 344 141.016 344 L 126.901 344 124.200 342.595 C 120.493 340.666, 117.492 337.142, 116.154 333.145 L 115.031 329.791 118.960 333.840 L 122.890 337.889 126.314 338.531 C 128.197 338.884, 135.166 339.022, 141.800 338.837 L 153.861 338.500 156.681 336.412 C 158.231 335.263, 160.266 332.788, 161.202 330.912 L 162.904 327.500 162.940 268.500 L 162.976 209.500 161.636 204.500 C 157.298 188.312, 144.940 175.464, 129.842 171.446 L 124.500 170.024 77.684 170.012 L 30.869 170 28.684 171.122 C 25.473 172.772, 21 177.175, 21 178.687 C 21 179.409, 20.550 180, 20 180 L 19 180 19 254.500 L 19 329 20 329 C 20.550 329, 21 329.591, 21 330.313 C 21 331.825, 25.473 336.228, 28.684 337.878 L 30.869 339 43.684 338.996 L 56.500 338.993 59.750 337.011 C 61.538 335.921, 63 335.373, 63 335.792 C 63 337.438, 59.733 341.087, 56.989 342.506 L 54.099 344 39.936 344 L 25.772 344 22.046 341.906 C 19.997 340.754, 17.529 338.473, 16.562 336.837 C 15.596 335.200, 14.561 334.105, 14.263 334.404 C 13.339 335.328, 18.947 341.921, 22.002 343.501 L 24.901 345 40.270 345 L 55.640 345 59.964 341.299 L 64.288 337.598 66.644 332.270 L 69 326.943 69 265.471 L 69 204 86.250 204.004 L 103.500 204.007 106.696 205.956 C 108.453 207.028, 110.703 209.143, 111.696 210.657 L 113.500 213.409 114 273.529 L 114.500 333.649 116.884 337.127 C 118.196 339.041, 120.777 341.595, 122.620 342.803 L 125.972 345 141 345 L 156.028 345 159.380 342.803 C 161.223 341.595, 163.804 339.040, 165.116 337.127 L 167.500 333.648 167.812 270.574 L 168.123 207.500 166.965 202 C 164.574 190.650, 156.549 178.226, 147.656 172.107 C 141.432 167.825, 136.137 165, 134.335 165 C 133.453 165, 135.829 166.551, 139.616 168.446 M 358.155 169.274 C 354.423 170.468, 349 175.386, 349 177.577 C 349 178.360, 348.550 179, 348 179 L 347 179 347 289 L 347 399 348 399 C 348.550 399, 349 399.587, 349 400.304 C 349 401.922, 355.158 408, 356.798 408 C 357.459 408, 358 408.450, 358 409 L 358 410 371.500 410 L 385 410 385 409 C 385 408.450, 385.567 408, 386.260 408 C 386.953 408, 388.783 406.829, 390.326 405.399 C 391.869 403.968, 393.387 403.054, 393.700 403.367 C 394.900 404.567, 391.550 410.229, 387.682 413.540 C 385.459 415.443, 384.059 416.986, 384.570 416.968 C 387.754 416.860, 393.815 408.820, 395.319 402.709 L 396.356 398.500 396.709 371.750 L 397.063 345 427.710 345 L 458.358 345 461.929 343.862 C 463.893 343.237, 467.949 341.549, 470.942 340.112 L 476.385 337.500 483.042 331.271 L 489.699 325.041 492.850 319.131 C 494.582 315.880, 495.989 312.608, 495.974 311.860 C 495.960 311.112, 494.636 313.200, 493.030 316.500 C 487.300 328.279, 476.130 337.917, 463.300 342.149 L 457.690 344 426.345 344 L 395 344 395 343.019 C 395 341.289, 398.945 341.021, 428.500 340.743 L 457.500 340.471 462.477 338.619 C 476.908 333.248, 487.661 321.399, 491.509 306.629 L 493 300.902 493 255.500 L 493 210.098 491.533 204.467 C 486.743 186.076, 473.701 173.379, 455.500 169.386 L 449.500 168.070 405.500 168.137 L 361.500 168.204 358.155 169.274 M 338.136 184.168 C 338.061 185.086, 337.709 186.661, 337.353 187.668 L 336.706 189.500 337.937 188.365 L 339.169 187.231 338.721 184.865 L 338.272 182.500 338.136 184.168 M 333.061 196.266 C 323.741 213.851, 310.535 229.252, 295.377 240.215 L 288.071 245.500 288.036 247.062 C 288.016 247.922, 289.957 251.297, 292.348 254.562 C 294.739 257.828, 303.881 270.625, 312.664 283 C 321.447 295.375, 330.740 308.362, 333.316 311.860 L 338 318.220 338.136 320.860 L 338.272 323.500 338.697 321.318 C 339.128 319.101, 337.117 314.289, 334.738 311.845 C 333.604 310.680, 317.210 287.996, 308.589 275.664 C 306.988 273.374, 301.925 266.215, 297.339 259.756 C 287.357 245.698, 287.511 247.472, 295.750 241.460 C 304.717 234.915, 318.571 221.060, 324.208 213 C 328.843 206.372, 337.337 191.004, 336.711 190.378 C 336.521 190.188, 334.879 192.837, 333.061 196.266 M 272.462 197.098 C 267.543 202.153, 237.935 224, 236.005 224 C 235.452 224, 235 224.900, 235 226 C 235 228.873, 236.338 228.521, 243.305 223.817 C 262.467 210.877, 272.960 201.719, 276.611 194.750 C 278.575 191, 278.180 191.224, 272.462 197.098 M 496.648 203.500 C 496.996 206.250, 497.443 208.688, 497.641 208.917 C 498.497 209.910, 497.874 201.354, 496.991 200 L 496.014 198.500 496.648 203.500 M 397 250.500 L 397 298 401 302 L 405 306 419.772 306 L 434.544 306 438.237 302.956 L 441.930 299.912 442.960 296.206 L 443.989 292.500 443.994 253.962 L 444 215.424 441.750 211.036 L 439.500 206.648 436.016 204.824 L 432.531 203 414.766 203 L 397 203 397 250.500 M 497.160 302.125 C 497.072 303.019, 496.745 305.269, 496.433 307.125 L 495.867 310.500 496.995 308.728 C 497.616 307.754, 497.943 305.504, 497.722 303.728 C 497.501 301.953, 497.248 301.231, 497.160 302.125 M 342.090 404.300 C 341.891 408.267, 348.995 417.059, 352.327 416.968 C 352.972 416.951, 352.600 416.281, 351.500 415.480 C 347.200 412.349, 343.921 408.491, 343.070 405.564 L 342.180 402.500 342.090 404.300" stroke="none" fill="#27c4fb" fill-rule="evenodd"/><path d="M 0 256.002 L 0 512.004 256.250 511.752 L 512.500 511.500 512.752 255.750 L 513.004 0 256.502 0 L 0 0 0 256.002 M 0.492 256.500 C 0.492 397.300, 0.608 454.751, 0.750 384.170 C 0.892 313.588, 0.892 198.388, 0.750 128.170 C 0.608 57.951, 0.492 115.700, 0.492 256.500 M 191.366 89.919 C 189.642 90.970, 187.055 93.373, 185.616 95.259 L 183 98.689 183 216.892 L 183 335.095 187.952 340.048 L 192.905 345 208.466 345 L 224.027 345 226.213 343.750 C 229.599 341.813, 231.586 339.805, 233.881 336 L 235.993 332.500 235.996 302.917 C 235.998 286.646, 236.282 273.051, 236.627 272.707 C 238.715 270.618, 245.664 277.298, 254.617 290 C 270.893 313.090, 280.867 327.130, 285.391 333.318 L 290.376 340.136 294.526 342.568 L 298.676 345 313.190 345 L 327.704 345 331.078 342.726 C 332.934 341.476, 335.476 338.934, 336.726 337.078 L 339 333.704 338.996 326.102 L 338.993 318.500 336.870 315 C 335.703 313.075, 334.444 311.275, 334.073 311 C 333.488 310.567, 317.201 287.984, 308.589 275.664 C 306.988 273.374, 301.925 266.215, 297.339 259.756 C 287.357 245.698, 287.511 247.472, 295.750 241.460 C 311.562 229.920, 324.555 214.653, 333.891 196.644 L 339 186.787 339 179.380 L 339 171.972 336.828 168.658 C 335.633 166.836, 333.164 164.367, 331.342 163.172 L 328.028 161 312.964 161 L 297.901 161 295.200 162.405 C 290.671 164.762, 288.613 167.626, 282.265 180.406 C 275.370 194.287, 268.107 201.503, 246.310 216.127 L 236 223.045 236 161.909 L 236 100.772 233.826 96.904 C 232.630 94.776, 229.940 91.902, 227.847 90.518 L 224.043 88 209.271 88.004 L 194.500 88.007 191.366 89.919 M 353.500 162.686 C 350.343 163.503, 345.139 167.831, 343.499 171.002 L 342 173.901 342 290 L 342 406.099 343.464 408.931 C 344.269 410.488, 346.329 412.940, 348.041 414.381 L 351.153 417 368.327 416.968 L 385.500 416.937 388.125 414.624 C 391.845 411.346, 394.122 407.575, 395.319 402.709 L 396.356 398.500 396.709 371.750 L 397.063 345 427.710 345 L 458.358 345 461.929 343.862 C 477.814 338.802, 490.587 326.808, 496.072 311.804 L 498 306.528 498 254.585 L 498 202.642 496.857 199.071 C 496.229 197.107, 494.355 192.674, 492.693 189.221 L 489.671 182.942 482.571 176.221 C 476.164 170.155, 473.563 168.473, 463.500 163.885 L 460.500 162.517 408 162.343 C 379.125 162.247, 354.600 162.401, 353.500 162.686 M 21.389 164.905 C 19.677 165.948, 17.315 168.154, 16.139 169.805 L 14 172.809 14 254.060 L 14 335.311 16.552 338.657 C 17.955 340.497, 20.408 342.677, 22.002 343.501 L 24.901 345 40.270 345 L 55.640 345 59.964 341.299 L 64.288 337.598 66.644 332.270 L 69 326.943 69 265.471 L 69 204 86.250 204.004 L 103.500 204.007 106.696 205.956 C 108.453 207.028, 110.703 209.143, 111.696 210.657 L 113.500 213.409 114 273.529 L 114.500 333.649 116.884 337.127 C 118.196 339.041, 120.777 341.595, 122.620 342.803 L 125.972 345 141 345 L 156.028 345 159.380 342.803 C 161.223 341.595, 163.804 339.040, 165.116 337.127 L 167.500 333.648 167.812 270.574 L 168.123 207.500 166.965 202 C 163.276 184.486, 149.685 169.800, 131.929 164.139 L 128.358 163 76.429 163.004 L 24.500 163.007 21.389 164.905 M 397 250.500 L 397 298 401 302 L 405 306 419.772 306 L 434.544 306 438.237 302.956 L 441.930 299.912 442.960 296.206 L 443.989 292.500 443.994 253.962 L 444 215.424 441.750 211.036 L 439.500 206.648 436.016 204.824 L 432.531 203 414.766 203 L 397 203 397 250.500" stroke="none" fill="#050505" fill-rule="evenodd"/></svg>