<?xml version="1.0" encoding="utf-8"?>
<svg width="1024" height="1024" viewBox="0 0 1024 1024" version="1.1" xmlns="http://www.w3.org/2000/svg">
  <defs/>
  <path d="M 0 512.001 L 0 1024.002 512.250 1023.751 L 1024.500 1023.500 1024.751 511.750 L 1025.002 0 512.501 0 L 0 0 0 512.001 M 0.496 512.500 C 0.496 794.100, 0.610 909.151, 0.750 768.168 C 0.890 627.186, 0.890 396.786, 0.750 256.168 C 0.610 115.551, 0.496 230.900, 0.496 512.500 M 402.748 246.398 C 394.311 249.473, 387.846 256.928, 385.969 265.745 C 385.303 268.876, 385.050 329.241, 385.229 442.500 L 385.500 614.500 387.590 619 C 390.178 624.573, 396.258 630.169, 402.185 632.433 C 406.025 633.899, 409.713 634.101, 427.589 633.824 C 451.001 633.461, 451.851 633.247, 458.971 625.911 C 465.929 618.740, 466 618.157, 466 567.927 L 466 523.211 469.254 523.945 C 473.548 524.913, 476.973 526.818, 481.262 530.624 C 483.198 532.342, 499.764 554.740, 518.077 580.397 L 551.372 627.048 558.320 630.524 L 565.269 634 583.884 633.994 C 594.123 633.991, 604.176 633.523, 606.225 632.954 C 611.925 631.371, 618.086 626.093, 621.207 620.118 C 623.652 615.438, 623.995 613.695, 623.956 606.136 C 623.932 601.386, 623.340 595.901, 622.642 593.947 C 621.943 591.992, 617.997 585.917, 613.874 580.447 C 598.932 560.623, 545.796 485.871, 546.293 485.374 C 546.573 485.093, 549.616 482.883, 553.055 480.461 C 583.271 459.184, 602.039 437.348, 619.634 403 C 624.405 393.686, 624.499 393.323, 624.470 384.500 C 624.436 374.136, 622.507 368.661, 616.923 363.077 C 610.084 356.238, 606.928 355.500, 584.500 355.500 C 566.326 355.500, 564.088 355.691, 559.989 357.588 C 552.649 360.986, 549.151 365.416, 541.900 380.500 C 530.216 404.804, 522.654 412.715, 488.500 436.361 L 466.500 451.592 466 357.546 C 465.441 252.471, 466.017 260.351, 458.333 252.667 C 451.614 245.948, 449.832 245.527, 427 245.265 C 411.665 245.090, 405.555 245.375, 402.748 246.398 M 653.920 355.976 C 644.432 357.653, 637.839 362.741, 633.804 371.500 L 631.500 376.500 631.500 550.500 L 631.500 724.500 633.624 729 C 636.355 734.784, 641.319 739.760, 647 742.405 C 651.118 744.322, 653.281 744.500, 672.500 744.500 C 692.256 744.500, 693.745 744.369, 697.634 742.289 C 703.093 739.369, 707.876 734.482, 710.129 729.522 C 711.812 725.817, 711.958 721.897, 711.978 679.803 L 712 634.105 760.750 633.778 C 808.649 633.456, 809.622 633.410, 816.500 631.126 C 841.441 622.847, 860.316 603.860, 867.068 580.261 C 870.819 567.149, 871.187 557.967, 870.767 488 C 870.372 422.348, 870.301 420.281, 868.175 412.500 C 865.215 401.670, 860.961 393.313, 854.006 384.668 C 843.223 371.264, 829.618 362.243, 813.500 357.812 C 805.633 355.650, 804.275 355.610, 732 355.390 C 691.575 355.267, 656.439 355.531, 653.920 355.976 M 143 362.062 C 137.474 364.586, 133.423 368.322, 130.908 373.210 C 129.062 376.800, 129 380.808, 129 497.264 L 129 617.608 131.947 622.255 C 135.209 627.399, 140.415 631.240, 146.500 632.993 C 149.093 633.740, 157.194 634.032, 169.533 633.823 C 187.659 633.515, 188.801 633.378, 193.523 630.945 C 199.106 628.069, 204.409 621.790, 205.954 616.225 C 206.635 613.776, 206.991 578.830, 206.994 514.195 L 207 415.890 236.750 416.195 C 269.455 416.530, 269.360 416.513, 275.923 423.077 C 282.972 430.126, 282.446 422.625, 283 524 C 283.495 614.509, 283.523 615.550, 285.614 620.070 C 288.299 625.874, 294.035 631.466, 299.408 633.518 C 302.867 634.839, 307.233 635.062, 324.628 634.808 L 345.665 634.500 350.556 631.474 C 356.551 627.764, 360.607 621.502, 362.041 613.741 C 362.761 609.842, 362.986 578.037, 362.738 515.241 C 362.328 411.519, 362.720 417.300, 355.016 401.500 C 346.138 383.291, 330.126 369.386, 310.500 362.843 L 303.500 360.509 225.500 360.258 C 148.648 360.010, 147.434 360.037, 143 362.062 M 712 484.374 C 712 561.957, 711.870 560.030, 717.618 567.565 C 719.100 569.509, 722.380 572.314, 724.906 573.800 L 729.500 576.500 751 576.500 C 771.212 576.500, 772.745 576.369, 776.595 574.309 C 781.718 571.568, 786.378 566.333, 788.144 561.336 C 789.230 558.264, 789.500 545.050, 789.500 495 C 789.500 426.005, 789.668 427.966, 783.129 420.713 C 776.384 413.232, 775.390 413.047, 741.750 413.022 L 712 413 712 484.374 M 1012 662.500 L 1012 668 1018 668 L 1024 668 1024 662.500 L 1024 657 1018 657 L 1012 657 1012 662.500" fill="#000000" fill-rule="evenodd" style="stroke: rgb(255, 255, 255); stroke-width: 13px;"/>
  <path d="M 403.500 247.207 C 400.314 248.320, 394.368 252.397, 392.192 254.959 C 391.472 255.807, 389.897 258.525, 388.692 261 L 386.500 265.500 386.197 434.500 C 386.030 527.450, 386.174 606.273, 386.517 609.662 C 387.360 617.995, 391.796 625.376, 398.418 629.464 L 403.335 632.500 424.372 632.808 C 441.767 633.062, 446.133 632.839, 449.592 631.518 C 454.965 629.466, 460.701 623.874, 463.386 618.070 C 465.423 613.666, 465.511 611.856, 465.814 568.250 L 466.128 523 468.314 523.022 C 471.817 523.057, 478.166 526.410, 482.683 530.611 C 484.983 532.750, 501.544 555.200, 519.484 580.500 C 551.830 626.115, 552.154 626.527, 558.136 629.750 L 564.169 633 584.388 633 C 604.222 633, 604.708 632.950, 609.890 630.367 C 619.843 625.408, 624.999 614.551, 623.538 601.632 C 622.701 594.235, 621.683 592.235, 612.590 580.133 C 603.098 567.500, 545 486.270, 545 485.632 C 545 485.360, 548.487 482.672, 552.750 479.659 C 583.684 457.793, 603.929 434.031, 620.150 400.553 C 623.559 393.515, 624 391.755, 624 385.169 C 624 375.453, 622.532 370.886, 617.613 365.297 C 610.816 357.576, 608.705 357.047, 584.566 357.022 C 555.224 356.991, 554.501 357.406, 543.022 380.813 C 535.120 396.929, 531.141 402.697, 521.379 412.191 C 512.500 420.826, 512.399 420.904, 487.582 438.150 L 466.500 452.801 466 359.150 C 465.533 271.732, 465.380 265.234, 463.699 261.500 C 461.201 255.950, 456.401 251.182, 450.500 248.387 C 445.754 246.140, 444.511 246.023, 426 246.089 C 415.169 246.127, 405.166 246.624, 403.500 247.207 M 647.478 358.871 C 642.343 361.204, 637.204 366.343, 634.871 371.478 C 633.124 375.323, 633.043 383.141, 633.028 549.500 C 633.017 663.207, 633.360 724.755, 634.017 727.123 C 635.488 732.418, 642.048 739.344, 648.029 741.917 C 652.820 743.978, 654.375 744.094, 673.317 743.807 C 690.316 743.548, 694.069 743.217, 697.108 741.704 C 701.846 739.344, 706.639 734.579, 709.330 729.553 C 711.453 725.587, 711.506 724.507, 711.797 679.250 L 712.093 633 758.797 632.985 C 796.677 632.973, 806.696 632.688, 811.832 631.478 C 833.918 626.271, 853.831 609.996, 862.965 589.687 C 869.684 574.748, 869.500 577.454, 869.500 493.500 L 869.500 417.500 866.883 409.833 C 863.064 398.648, 857.703 389.746, 849.732 381.355 C 838.002 369.006, 827.589 362.603, 813.286 358.945 C 806.070 357.100, 801.723 357.001, 728.590 357.022 C 656.092 357.043, 651.260 357.153, 647.478 358.871 M 143.500 362.879 C 139.079 364.907, 134.690 368.911, 131.859 373.500 C 130.084 376.376, 130.007 381.484, 130.004 497.100 L 130 617.699 132.873 621.977 C 136.153 626.861, 142.762 631.678, 147.365 632.539 C 149.089 632.862, 159.312 632.985, 170.083 632.813 L 189.665 632.500 194.583 629.464 C 200.766 625.646, 205.458 618.198, 206.348 610.784 C 206.697 607.878, 206.987 562.638, 206.991 510.250 L 207 415 233.451 415 C 248.796 415, 262.040 415.459, 264.994 416.092 C 271.357 417.457, 277.725 422.213, 281 428.047 L 283.500 432.500 284 524 C 284.493 614.174, 284.530 615.565, 286.590 620 C 289.117 625.441, 295.339 631.264, 300.619 633.129 C 303.398 634.111, 310.038 634.500, 324 634.500 L 343.500 634.500 348.754 631.589 C 354.475 628.419, 358.622 623.705, 360.629 618.090 C 361.637 615.269, 361.922 594.419, 361.956 520.708 C 362.005 416.691, 362.096 418.334, 355.499 404.256 C 351.102 394.872, 347.507 389.724, 340.363 382.581 C 333.192 375.409, 325.362 370.020, 317.007 366.503 C 304.076 361.060, 303.629 361.034, 222.500 361.039 C 151.875 361.044, 147.267 361.151, 143.500 362.879 M 712 485.344 L 712 558.772 714.793 564.118 C 717.984 570.226, 724.154 575.426, 730.117 577.031 C 732.572 577.693, 741.652 577.997, 753.325 577.809 C 769.347 577.551, 773.093 577.205, 776.108 575.704 C 780.846 573.344, 785.639 568.579, 788.330 563.553 C 790.492 559.514, 790.500 559.270, 790.500 495 C 790.500 422.925, 790.911 427.244, 783.333 419.667 C 776.263 412.596, 775.916 412.533, 742.250 412.209 L 712 411.917 712 485.344" fill="#1ccaf9" fill-rule="evenodd" style="stroke: rgb(255, 255, 255); stroke-width: 10px;"/>
  <path d="" stroke="none" fill="#1bcafa" fill-rule="evenodd"/>
  <path d="M 402.748 246.427 C 394.355 249.422, 387.849 256.913, 385.969 265.745 C 385.303 268.876, 385.050 329.241, 385.229 442.500 C 385.486 605.674, 385.592 614.705, 387.301 618.500 C 389.799 624.050, 394.599 628.818, 400.500 631.613 C 405.303 633.887, 406.306 633.973, 426 633.787 L 446.500 633.593 424.917 633.047 L 403.334 632.500 398.417 629.464 C 391.796 625.376, 387.360 617.994, 386.517 609.662 C 386.174 606.273, 386.030 527.450, 386.197 434.500 L 386.500 265.500 388.595 261 C 391.041 255.747, 395.798 250.833, 400.892 248.296 C 403.925 246.786, 407.681 246.451, 424.448 246.190 C 447.349 245.834, 450.247 246.459, 457.884 253.406 C 460.718 255.983, 461.673 256.535, 460.463 254.896 C 458.002 251.559, 452.447 247.632, 448.101 246.155 C 443.150 244.473, 407.627 244.686, 402.748 246.427 M 565.903 355.952 C 555.066 357.928, 550.544 362.511, 542.178 380 C 530.467 404.481, 522.543 412.827, 489.016 435.989 C 476.902 444.358, 466.685 451.700, 466.311 452.306 C 465.651 453.374, 471.635 449.338, 498.298 430.735 C 514.855 419.183, 525.585 409.395, 533.166 398.930 C 534.822 396.644, 539.281 388.443, 543.075 380.705 C 554.494 357.420, 555.245 356.991, 584.566 357.022 C 608.841 357.047, 610.758 357.541, 617.927 365.607 C 620.319 368.298, 621.770 369.528, 621.151 368.340 C 619.203 364.600, 613.694 359.753, 609.011 357.658 C 605.157 355.934, 602.025 355.602, 587.500 355.377 C 578.150 355.233, 568.431 355.491, 565.903 355.952 M 653.920 355.976 C 644.432 357.653, 637.839 362.741, 633.804 371.500 L 631.500 376.500 631.500 550.500 L 631.500 724.500 633.624 729 C 634.792 731.475, 637.240 734.995, 639.063 736.822 C 642.423 740.189, 647.821 743.512, 648.625 742.708 C 648.867 742.467, 647.684 741.698, 645.998 740.999 C 641.899 739.301, 635.266 731.619, 634.017 727.123 C 633.360 724.755, 633.017 663.207, 633.028 549.500 C 633.043 383.141, 633.124 375.323, 634.871 371.478 C 637.204 366.343, 642.343 361.204, 647.478 358.871 C 651.260 357.153, 656.092 357.043, 728.590 357.022 C 801.723 357.001, 806.070 357.100, 813.286 358.945 C 821.940 361.158, 831.121 365.450, 837.991 370.494 C 845.677 376.135, 856.561 388.330, 860.910 396.172 C 863.145 400.202, 864.980 403.086, 864.987 402.581 C 865.013 400.728, 858.603 390.328, 853.621 384.141 C 843.338 371.371, 829.292 362.154, 813.500 357.812 C 805.633 355.650, 804.275 355.610, 732 355.390 C 691.575 355.267, 656.439 355.531, 653.920 355.976 M 143 362.062 C 137.474 364.586, 133.423 368.322, 130.908 373.210 C 129.062 376.800, 129 380.806, 129 497.122 L 129 617.324 131.567 621.704 C 133.962 625.791, 141.038 632, 143.301 632 C 143.851 632, 142.376 630.707, 140.023 629.127 C 137.671 627.547, 134.453 624.329, 132.873 621.977 L 130 617.699 130.004 497.100 C 130.007 381.484, 130.084 376.376, 131.859 373.500 C 134.690 368.911, 139.079 364.907, 143.500 362.879 C 147.267 361.151, 151.875 361.044, 222.500 361.039 C 282.765 361.036, 298.789 361.308, 304.063 362.426 C 324.795 366.821, 343.100 380.792, 353.563 400.207 C 355.428 403.668, 356.965 406.113, 356.977 405.640 C 357.028 403.710, 350.601 392.978, 345.957 387.238 C 336.951 376.108, 324.413 367.482, 310.500 362.843 L 303.500 360.509 225.500 360.258 C 148.648 360.010, 147.434 360.037, 143 362.062 M 624.310 384.500 C 624.315 387.800, 624.502 389.029, 624.725 387.232 C 624.947 385.435, 624.943 382.735, 624.715 381.232 C 624.486 379.729, 624.304 381.200, 624.310 384.500 M 726.812 412.748 C 735.233 412.916, 748.733 412.915, 756.812 412.748 C 764.890 412.580, 758 412.443, 741.500 412.443 C 725 412.444, 718.390 412.581, 726.812 412.748 M 220.811 415.748 C 228.681 415.917, 241.281 415.917, 248.811 415.747 C 256.340 415.578, 249.900 415.439, 234.500 415.440 C 219.100 415.440, 212.940 415.579, 220.811 415.748 M 782.618 420.142 C 789.737 427.968, 789.500 425.391, 789.500 495 C 789.500 545.050, 789.230 558.264, 788.144 561.336 C 786.378 566.333, 781.718 571.568, 776.595 574.309 C 772.745 576.369, 771.212 576.500, 751 576.500 C 726.741 576.500, 725.944 576.306, 718.542 568.614 C 714.872 564.800, 714.771 564.755, 717.152 568 C 718.564 569.925, 721.885 572.850, 724.530 574.500 L 729.341 577.500 750.920 577.500 C 769.679 577.500, 772.972 577.265, 776.108 575.704 C 780.846 573.344, 785.639 568.579, 788.330 563.553 C 790.480 559.537, 790.503 558.928, 790.792 497.500 C 790.993 454.840, 790.742 434.121, 789.985 431.080 C 788.752 426.122, 785.014 420.422, 781.104 417.537 C 779.477 416.336, 780.044 417.313, 782.618 420.142 M 271.610 419.593 C 275.857 422.425, 278.144 424.895, 280.782 429.500 C 282.361 432.258, 282.540 439.888, 283 524 C 283.493 614.145, 283.531 615.567, 285.588 620.011 C 289.298 628.027, 298.510 635.081, 305 634.878 C 306.846 634.820, 306.511 634.566, 303.718 633.908 C 295.919 632.072, 289.611 626.854, 286.301 619.500 C 284.621 615.769, 284.466 609.346, 284 524 L 283.500 432.500 281 428.047 C 278.633 423.831, 271.079 417, 268.783 417 C 268.199 417, 269.471 418.167, 271.610 419.593 M 362.479 521.500 C 362.479 571, 362.601 591.104, 362.750 566.175 C 362.899 541.246, 362.899 500.746, 362.750 476.175 C 362.601 451.604, 362.479 472, 362.479 521.500 M 870.472 496.500 C 870.472 532.250, 870.597 546.730, 870.750 528.677 C 870.902 510.625, 870.902 481.375, 870.749 463.677 C 870.596 445.980, 870.471 460.750, 870.472 496.500 M 595.119 440.927 C 585.372 453.302, 569.018 468.187, 551.750 480.401 C 548.038 483.027, 545 485.531, 545 485.965 C 545 486.400, 545.788 487.373, 546.750 488.128 C 548.341 489.376, 548.374 489.339, 547.107 487.726 C 545.468 485.637, 545.146 486.031, 553.055 480.461 C 569.741 468.712, 590.408 449.365, 598.812 437.626 C 603.965 430.430, 602.015 432.172, 595.119 440.927 M 550.055 493 C 555.036 500.366, 613.548 581.734, 617.117 586.258 C 619.181 588.874, 621.165 591.946, 621.526 593.083 C 621.887 594.220, 622.403 594.930, 622.672 594.661 C 623.470 593.863, 621.102 590.066, 613.529 580 C 609.598 574.775, 593.851 552.950, 578.535 531.500 C 563.219 510.050, 550.014 491.825, 549.189 491 C 548.364 490.175, 548.754 491.075, 550.055 493 M 474.621 525.792 C 481.194 529.388, 485.710 535.059, 517.483 579.615 C 547.276 621.395, 555.691 632.835, 550.498 624.500 C 547.233 619.260, 486.835 534.601, 484.644 532.194 C 482.109 529.408, 474.081 523.984, 472.579 524.042 C 471.985 524.065, 472.905 524.852, 474.621 525.792 M 848.845 609.999 C 845.185 613.806, 839.363 618.748, 835.907 620.982 C 828.304 625.896, 826.985 627.147, 832.764 623.965 C 838.487 620.813, 848.737 612.194, 852.797 607.120 C 854.611 604.854, 855.961 603.018, 855.797 603.039 C 855.634 603.061, 852.505 606.193, 848.845 609.999 M 202.728 621.114 C 200.934 624.329, 198.321 627.109, 195.286 629.034 C 192.713 630.665, 191.079 632, 191.654 632 C 194.002 632, 201.039 625.789, 203.555 621.497 C 205.033 618.974, 206.074 616.741, 205.869 616.535 C 205.663 616.329, 204.250 618.390, 202.728 621.114 M 462.564 619.800 C 461.578 622.905, 455.029 629.082, 450.581 631.103 C 448.336 632.122, 447.210 632.966, 448.079 632.978 C 452.205 633.035, 465.758 620.425, 463.740 618.407 C 463.433 618.100, 462.904 618.727, 462.564 619.800 M 618.321 623.346 C 616.330 626.172, 613.395 628.621, 609.933 630.346 C 607.004 631.806, 605.283 633, 606.108 633 C 609.909 633, 617.852 626.375, 621.395 620.250 C 623.026 617.430, 621.182 619.288, 618.321 623.346 M 356.360 625.573 C 355.433 626.988, 352.385 629.458, 349.587 631.063 C 346.789 632.668, 344.910 633.985, 345.412 633.991 C 347.449 634.012, 355.008 628.798, 357.003 625.996 C 358.176 624.348, 358.891 623, 358.591 623 C 358.291 623, 357.288 624.158, 356.360 625.573 M 157.803 633.746 C 163.470 633.925, 172.470 633.924, 177.803 633.745 C 183.136 633.565, 178.500 633.419, 167.500 633.420 C 156.500 633.421, 152.136 633.568, 157.803 633.746 M 574.803 633.746 C 580.470 633.925, 589.470 633.924, 594.803 633.745 C 600.136 633.565, 595.500 633.419, 584.500 633.420 C 573.500 633.421, 569.136 633.568, 574.803 633.746 M 735.319 633.749 C 748.419 633.907, 769.569 633.907, 782.319 633.749 C 795.068 633.591, 784.350 633.461, 758.500 633.462 C 732.650 633.462, 722.218 633.591, 735.319 633.749 M 1012 662.500 L 1012 668 1018 668 L 1024 668 1024 662.500 L 1024 657 1018 657 L 1012 657 1012 662.500 M 709.028 729.931 C 707.863 732.746, 704.055 736.988, 699.500 740.547 C 697.536 742.082, 697.539 742.091, 699.660 741.068 C 704.058 738.946, 712.195 728.861, 710.708 727.375 C 710.467 727.133, 709.711 728.284, 709.028 729.931 M 663.199 744.744 C 667.984 744.927, 676.084 744.928, 681.199 744.746 C 686.315 744.564, 682.400 744.414, 672.500 744.413 C 662.600 744.412, 658.415 744.561, 663.199 744.744" stroke="none" fill="#040404" fill-rule="evenodd"/>
</svg>