<svg xmlns="http://www.w3.org/2000/svg" width="512" height="512" viewBox="0 0 512 512" version="1.1"><path d="M 200 6.617 C 183.754 8.353, 176.124 9.569, 166.103 12.019 C 132.867 20.147, 105.296 35.442, 79.612 60 C 45.630 92.491, 25.470 130.887, 17.373 178.537 C 15.950 186.914, 15.614 198.129, 15.261 249 C 14.812 313.798, 15.224 322.918, 19.602 345 C 29.935 397.118, 61.448 444.023, 106.362 474.137 C 130.842 490.550, 157.688 500.609, 187.301 504.464 C 204.447 506.696, 307.553 506.696, 324.699 504.464 C 354.299 500.610, 380.675 490.730, 405.500 474.197 C 446.788 446.699, 477.645 403.467, 489.879 355.981 C 496.075 331.929, 496.298 328.964, 496.756 264.500 C 497.035 225.125, 496.797 201.342, 496.038 193 C 491.543 143.553, 472.427 101.177, 439.035 66.637 C 407.464 33.979, 372.977 15.832, 328.182 8.304 C 320.144 6.953, 308.738 6.640, 261 6.460 C 229.375 6.341, 201.925 6.411, 200 6.617 M 190.506 29.119 C 144.358 35.228, 104.778 58.257, 73.838 97 C 58.905 115.699, 46.144 142.320, 40.522 166.500 C 35.691 187.279, 35.500 190.727, 35.500 257 C 35.500 325.045, 35.681 327.808, 41.659 350.832 C 46.820 370.709, 56.787 392.056, 68.790 408.939 C 76.288 419.488, 95.068 439.506, 104.394 446.893 C 126.840 464.672, 153.008 476.710, 181 482.133 C 191.869 484.239, 195.602 484.383, 249 484.762 C 308.353 485.183, 320.016 484.668, 337.908 480.837 C 391.617 469.337, 439.878 428.550, 462.453 375.579 C 471.166 355.137, 475.466 335.951, 477.152 310 C 478.757 285.298, 477.672 197.614, 475.593 184 C 470.332 149.547, 457.004 119.111, 435.963 93.500 C 428.762 84.735, 412.471 68.870, 404.312 62.677 C 384.032 47.281, 361.467 36.975, 335.612 31.301 L 323.500 28.642 260.500 28.418 C 225.850 28.294, 194.353 28.609, 190.506 29.119 M 232.500 217.890 C 227.330 220.277, 221.628 226.093, 218.767 231.900 C 216.634 236.227, 216.500 237.716, 216.500 257 C 216.500 277.430, 216.510 277.519, 219.301 283.204 C 222.286 289.283, 225.749 292.748, 232.384 296.298 C 236.232 298.357, 237.801 298.500, 256.500 298.500 C 275.433 298.500, 276.753 298.376, 281.239 296.166 C 287.680 292.994, 293.660 285.977, 295.596 279.319 C 296.826 275.087, 297.084 269.928, 296.826 254.732 C 296.528 237.180, 296.308 235.141, 294.298 231.384 C 290.834 224.909, 287.367 221.362, 281.780 218.578 C 276.732 216.062, 276.122 216.001, 256.554 216.022 C 239.198 216.041, 235.962 216.292, 232.500 217.890" stroke="none" fill="#000000" fill-rule="evenodd"/><path d="M 196 28.639 C 194.625 28.841, 190.125 29.485, 186 30.070 C 165.587 32.967, 142.071 41.332, 124.938 51.790 C 75.916 81.716, 44.501 129.756, 36.849 186.500 C 34.917 200.825, 34.921 313.649, 36.854 326.500 C 40.116 348.187, 45.425 365.801, 54.039 383.508 C 64.075 404.136, 75.371 419.440, 93.155 436.500 C 121.907 464.081, 156.223 479.936, 195.856 483.951 C 209.113 485.294, 302.481 485.323, 316.144 483.988 C 359.296 479.773, 396.757 461.374, 426.568 429.752 C 454.403 400.227, 471.073 364.563, 475.999 324 C 476.801 317.390, 477.032 294.882, 476.756 250 L 476.359 185.500 473.708 173.427 C 465.657 136.763, 450.451 107.914, 425.625 82.201 C 395.936 51.451, 360.594 33.755, 319.459 29.043 C 311.257 28.103, 202.083 27.746, 196 28.639 M 195 56.693 C 172.725 59.070, 148.564 67.890, 129.500 80.604 C 94.915 103.671, 71.278 139.374, 62.743 181.443 C 60.557 192.217, 60.500 194.139, 60.500 256.500 C 60.500 312.679, 60.709 321.600, 62.208 329.500 C 68.719 363.798, 82.610 390.053, 106.918 414 C 124.547 431.367, 142.076 442.390, 163.500 449.582 C 184.478 456.624, 189.564 457.136, 244.270 457.706 C 296.394 458.250, 315.578 457.435, 330.873 454.028 C 349.827 449.806, 368.578 441.473, 384.349 430.261 C 394.281 423.201, 411.645 406.110, 419.158 396 C 435.988 373.352, 446.029 347.169, 449.071 318 C 449.791 311.101, 450.015 287.609, 449.724 249.500 C 449.236 185.539, 449.170 184.758, 442.530 163.500 C 431.651 128.676, 407.190 97.206, 375.493 77.255 C 366.857 71.819, 351.911 65.251, 341 62.096 C 321.345 56.413, 315.036 55.983, 253.872 56.160 C 223.417 56.248, 196.925 56.488, 195 56.693 M 221.500 166.454 C 195.479 171.187, 175.227 191.242, 168.023 219.410 C 166.214 226.484, 166.002 230.446, 166.017 256.910 C 166.036 288.645, 166.659 294.402, 171.330 305.965 C 177.659 321.634, 189.112 334.714, 202.688 341.777 C 216.855 349.147, 219.243 349.500, 255 349.500 C 289.813 349.500, 292.906 349.094, 305.225 342.899 C 322.255 334.334, 334.448 319.579, 341.084 299.500 C 343.265 292.901, 343.419 290.695, 343.768 261 C 344.065 235.747, 343.841 228.076, 342.638 222.322 C 339.482 207.222, 333.056 195.236, 322.304 184.396 C 313.275 175.292, 300.777 168.672, 288.500 166.491 C 278.065 164.637, 231.630 164.611, 221.500 166.454 M 236.324 216.392 C 230.081 218.415, 225.456 221.616, 222.006 226.302 C 216.728 233.471, 215.800 238.716, 216.171 259.278 C 216.489 276.916, 216.590 277.684, 219.318 283.239 C 222.666 290.057, 228.933 295.574, 235.615 297.585 C 242.406 299.629, 270.840 299.534, 277.878 297.444 C 284.008 295.623, 289.953 290.636, 293.805 284.084 C 296.456 279.575, 296.505 279.168, 296.824 259.231 C 297.091 242.549, 296.860 238.094, 295.520 234.060 C 293.439 227.796, 287.298 220.818, 281.239 217.834 C 276.874 215.684, 275.079 215.482, 258.500 215.269 C 245.542 215.103, 239.330 215.418, 236.324 216.392" stroke="none" fill="#fbfafa" fill-rule="evenodd"/><path d="M 195 56.693 C 172.725 59.070, 148.564 67.890, 129.500 80.604 C 94.915 103.671, 71.278 139.374, 62.743 181.443 C 60.557 192.217, 60.500 194.139, 60.500 256.500 C 60.500 312.679, 60.709 321.600, 62.208 329.500 C 68.719 363.798, 82.610 390.053, 106.918 414 C 124.547 431.367, 142.076 442.390, 163.500 449.582 C 184.478 456.624, 189.564 457.136, 244.270 457.706 C 296.394 458.250, 315.578 457.435, 330.873 454.028 C 349.827 449.806, 368.578 441.473, 384.349 430.261 C 394.281 423.201, 411.645 406.110, 419.158 396 C 435.988 373.352, 446.029 347.169, 449.071 318 C 449.791 311.101, 450.015 287.609, 449.724 249.500 C 449.236 185.539, 449.170 184.758, 442.530 163.500 C 431.651 128.676, 407.190 97.206, 375.493 77.255 C 366.857 71.819, 351.911 65.251, 341 62.096 C 321.345 56.413, 315.036 55.983, 253.872 56.160 C 223.417 56.248, 196.925 56.488, 195 56.693 M 221.500 166.454 C 195.479 171.187, 175.227 191.242, 168.023 219.410 C 166.214 226.484, 166.002 230.446, 166.017 256.910 C 166.036 288.645, 166.659 294.402, 171.330 305.965 C 177.659 321.634, 189.112 334.714, 202.688 341.777 C 216.855 349.147, 219.243 349.500, 255 349.500 C 289.813 349.500, 292.906 349.094, 305.225 342.899 C 322.255 334.334, 334.448 319.579, 341.084 299.500 C 343.265 292.901, 343.419 290.695, 343.768 261 C 344.065 235.747, 343.841 228.076, 342.638 222.322 C 339.482 207.222, 333.056 195.236, 322.304 184.396 C 313.275 175.292, 300.777 168.672, 288.500 166.491 C 278.065 164.637, 231.630 164.611, 221.500 166.454 M 477.462 256.500 C 477.463 282.900, 477.592 293.556, 477.749 280.181 C 477.907 266.805, 477.907 245.205, 477.749 232.181 C 477.591 219.156, 477.462 230.100, 477.462 256.500 M 248.299 215.745 C 253.139 215.929, 260.789 215.928, 265.299 215.743 C 269.810 215.558, 265.850 215.408, 256.500 215.409 C 247.150 215.410, 243.460 215.562, 248.299 215.745" stroke="none" fill="#d40404" fill-rule="evenodd"/></svg>