<?xml version="1.0" encoding="utf-8"?>
<svg version="1.0" width="900.000000pt" height="474.000000pt" viewBox="211.273 -0.524 472.793 474.524" preserveAspectRatio="xMidYMid meet" xmlns="http://www.w3.org/2000/svg">
  <defs/>
  <g transform="matrix(0.146163, 0, 0, -0.146163, -208.46402, 581.720093)" fill="#000000" stroke="none" style="">
    <path d="M3510 3958 c-221 -30 -387 -132 -509 -314 -22 -34 -41 -66 -41 -72 0&#10;-6 -6 -23 -14 -39 -8 -15 -23 -55 -33 -88 -17 -56 -18 -124 -18 -1085 0 -963&#10;1 -1029 18 -1085 10 -33 24 -73 32 -90 7 -16 16 -37 19 -45 21 -50 88 -139&#10;143 -191 62 -59 124 -101 193 -129 30 -12 66 -26 80 -32 82 -33 230 -38 1110&#10;-38 880 0 1028 5 1110 38 14 6 50 20 80 32 69 28 131 70 193 129 55 52 122&#10;141 143 191 3 8 12 29 19 45 7 17 22 59 32 95 17 61 18 126 18 1085 0 956 -1&#10;1024 -18 1080 -10 33 -25 73 -33 88 -8 16 -14 33 -14 39 0 6 -19 38 -41 72&#10;-126 187 -288 284 -524 316 -99 13 -1849 11 -1945 -2z m1490 -174 c128 -28&#10;264 -78 345 -127 194 -117 365 -297 457 -482 58 -116 86 -197 112 -328 23&#10;-114 23 -861 0 -974 -53 -261 -161 -462 -343 -636 -168 -161 -336 -249 -571&#10;-301 -108 -23 -916 -24 -1018 -1 -255 59 -415 146 -587 319 -50 50 -112 120&#10;-137 156 -59 85 -148 261 -148 295 0 8 -6 29 -14 47 -39 91 -46 191 -46 608 0&#10;417 7 517 46 608 8 18 14 39 14 47 0 34 89 210 148 295 25 36 87 106 137 156&#10;170 171 330 259 580 318 47 11 159 14 505 15 378 1 456 -1 520 -15z"/>
    <path d="M4165 3614 c-210 -24 -347 -71 -496 -170 -74 -49 -192 -163 -235&#10;-227 -16 -23 -32 -44 -35 -47 -7 -6 -70 -129 -92 -180 -21 -48 -43 -131 -56&#10;-218 -14 -94 -15 -747 0 -844 28 -195 103 -357 241 -524 39 -46 205 -174 269&#10;-206 94 -46 144 -68 159 -68 6 0 32 -6 58 -14 86 -25 244 -36 531 -36 267 0&#10;401 9 496 32 92 22 117 29 133 37 9 5 40 19 67 31 185 84 397 301 469 480 10&#10;25 22 52 26 60 4 9 18 54 31 100 23 83 24 93 24 530 -1 436 -1 447 -24 530&#10;-13 46 -27 91 -31 100 -4 8 -22 47 -41 85 -32 68 -61 116 -86 143 -7 7 -13 17&#10;-13 21 0 19 -161 170 -230 216 -220 147 -353 175 -840 173 -162 -1 -308 -3&#10;-325 -4z m590 -693 c3 -5 20 -13 37 -17 85 -18 199 -125 249 -234 41 -88 49&#10;-143 49 -324 0 -132 -4 -193 -16 -234 -46 -165 -147 -280 -294 -335 -38 -14&#10;-84 -17 -282 -17 -249 0 -244 -1 -346 49 -55 27 -129 98 -164 159 -63 110 -67&#10;134 -67 377 0 243 4 267 67 377 32 55 124 148 147 148 6 0 16 5 23 12 6 6 33&#10;19 59 28 40 14 90 18 290 19 139 0 244 -3 248 -8z"/>
    <path d="M4335 2613 c-92 -48 -115 -99 -114 -258 0 -142 18 -191 84 -237 39&#10;-27 43 -27 186 -28 146 0 146 0 186 29 75 54 83 78 83 242 -1 141 -1 145 -28&#10;184 -16 23 -47 50 -72 62 -40 20 -60 23 -170 22 -94 0 -132 -4 -155 -16z"/>
  </g>
</svg>
