<?xml version="1.0" encoding="utf-8"?>
<svg width="300" height="300" viewBox="0 0 300 300" version="1.1" xmlns="http://www.w3.org/2000/svg">
  <path d="M 244.379 32.976 C 214.621 42.845 205.823 79.88 227.975 102.038 C 237.159 111.224 251.227 115.706 263.679 113.413 C 296.894 107.292 310.03 68.448 287.156 43.993 C 276.669 32.782 258.824 28.186 244.379 32.976 M 191.837 114.268 C 182.177 116.643 168.853 122.919 161.09 128.752 C 149.803 137.231 131.671 155.98 121.05 170.154 C 109.055 186.164 101.107 194.134 93.08 198.201 C 82.037 203.796 70.239 200.886 64.81 191.224 C 59.053 180.985 61.11 164.315 70.741 143.125 C 73.46 137.144 75.946 131.641 76.267 130.896 C 76.725 129.831 70.127 129.543 45.288 129.543 L 13.729 129.543 L 11.664 134.36 C 5.226 149.382 2.483 164.104 2.478 183.691 C 2.474 197.868 2.85 201.792 4.905 208.935 C 14.276 241.527 39.615 262.431 73.91 265.867 C 112.135 269.695 138.773 254.518 176.342 207.512 C 190.203 190.167 195.935 184.484 202.636 181.441 C 210.812 177.728 221.857 179.317 228.055 185.097 C 239.153 195.449 237.706 215.698 223.852 243.881 C 220.901 249.882 218.487 255.122 218.487 255.522 C 218.487 255.922 233.098 256.251 250.954 256.251 L 283.421 256.251 L 285.482 252.189 C 289.101 245.056 294.121 227.706 295.455 217.727 C 297.11 205.337 296.162 186.792 293.297 175.569 C 292.081 170.803 288.783 162.275 285.968 156.617 C 281.638 147.916 279.255 144.735 270.515 135.994 C 258.453 123.93 248.134 117.909 233.515 114.405 C 221.849 111.608 202.904 111.546 191.837 114.268" stroke="none" fill-rule="evenodd" style=""/>
</svg>
