<?xml version="1.0" encoding="utf-8"?>
<svg width="842" height="308" viewBox="0 0 842 308" version="1.1" xmlns="http://www.w3.org/2000/svg">
  <defs/>
  <path d="M 208.486 75.687 C 202.195 77.913 194.731 85.783 192.825 92.201 C 190.771 99.119 190.891 103.866 193.284 110.26 C 197.048 120.321 206.771 126.953 217.79 126.975 C 238.23 127.017 250.535 105.269 240.256 87.271 C 233.946 76.222 220.664 71.38 208.486 75.687 M 447.163 109.691 C 437.899 115.44 439.782 130.574 450.173 133.884 C 461.257 137.415 470.737 128.116 467.401 116.984 C 465.653 111.149 461.279 108.001 454.963 108.034 C 451.965 108.049 448.686 108.746 447.163 109.691 M 609.566 109.333 C 603.987 111.364 601.973 114.241 601.494 120.86 C 601.085 126.514 601.23 126.971 604.601 130.649 C 608.026 134.386 608.345 134.507 614.795 134.507 C 621.027 134.507 621.638 134.301 624.318 131.301 C 627.985 127.198 629.024 121.86 627.189 116.554 C 626.084 113.358 624.852 112.034 621.328 110.257 C 616.382 107.763 614.323 107.601 609.566 109.333 M 507.204 110.948 C 502.853 112.291 499.771 114.806 497.479 118.884 C 495.61 122.209 495.29 124.327 495.29 133.359 L 495.29 143.939 L 484.54 144.223 L 473.79 144.507 L 473.501 153.257 L 473.212 162.007 L 484.251 162.007 L 495.29 162.007 L 495.29 195.007 L 495.29 228.007 L 505.29 228.007 L 515.29 228.007 L 515.29 195.007 L 515.29 162.007 L 532.29 162.007 L 549.29 162.007 L 549.29 195.007 L 549.29 228.007 L 559.79 228.007 L 570.29 228.007 L 570.29 195.007 L 570.29 162.007 L 587.29 162.007 L 604.29 162.007 L 604.29 195.007 L 604.29 228.007 L 614.79 228.007 L 625.29 228.007 L 625.29 185.953 L 625.29 143.899 L 614.54 144.011 C 608.627 144.073 596.252 144.098 587.04 144.065 L 570.29 144.007 L 570.29 137.73 C 570.29 128.321 571.584 127.007 580.847 127.007 L 588.29 127.007 L 588.29 118.507 L 588.29 110.007 L 576.54 110.051 C 554.612 110.133 549.356 114.798 549.312 134.217 L 549.29 143.926 L 541.04 144.217 C 536.502 144.376 528.853 144.363 524.04 144.186 L 515.29 143.865 L 515.29 137.659 C 515.29 128.095 516.475 127.007 526.887 127.007 L 535.371 127.007 L 535.08 118.757 L 534.79 110.507 L 522.29 110.328 C 515.415 110.23 508.626 110.509 507.204 110.948 M 171.048 134.337 C 158.055 138.781 145.731 149.105 127.329 170.961 C 115.94 184.487 111.547 188.563 105.452 191.26 C 95.724 195.563 86.274 189.403 83.958 177.25 C 83.02 172.328 85.655 159.36 89.166 151.619 C 90.884 147.83 92.29 144.568 92.29 144.369 C 92.29 144.17 83.575 144.007 72.924 144.007 L 53.558 144.007 L 51.506 149.757 C 48.041 159.465 46.877 167 46.909 179.507 C 46.935 189.752 47.309 192.547 49.468 198.616 C 54.497 212.757 63.31 222.741 75.985 228.658 C 97.442 238.674 122.001 234.059 140.166 216.598 C 144.223 212.698 152.899 203.332 159.446 195.785 C 172.663 180.547 177.809 176.414 185.55 174.815 C 192.163 173.45 196.784 175.166 200.851 180.499 C 206.272 187.605 205.364 199.805 198.171 216.507 C 196.039 221.457 194.294 225.845 194.292 226.257 C 194.291 226.669 203.315 227.007 214.345 227.007 L 234.401 227.007 L 236.8 221.757 C 239.698 215.416 242.29 201.284 242.29 191.823 C 242.29 167.121 227.662 143.736 206.801 135.09 C 201.804 133.019 198.851 132.551 189.29 132.315 C 179.421 132.071 176.834 132.358 171.048 134.337 M 294.29 142.141 C 278.68 144.697 269.377 154.986 270.494 168.459 C 271.095 175.695 274.036 180.901 279.692 184.736 C 284.559 188.037 301.35 194.007 305.764 194.007 C 307.112 194.007 310.658 194.921 313.644 196.038 C 320.349 198.547 322.374 202.01 319.916 206.763 C 317.402 211.625 310.139 213.74 301.862 212.022 C 295.17 210.633 290.689 207.163 288.137 201.395 L 286.289 197.217 L 277.207 199.528 C 272.212 200.799 267.891 202.073 267.605 202.358 C 267.32 202.644 267.831 205.121 268.742 207.863 C 273.347 221.726 288.813 229.802 308.745 228.751 C 319.677 228.174 326.924 225.868 332.32 221.249 C 339.665 214.963 342.695 205.034 340.308 195.082 C 337.952 185.26 329.49 180.461 304.887 174.993 C 294.415 172.666 290.29 170.126 290.29 166.005 C 290.29 160.789 299.483 157.018 307.563 158.919 C 313.021 160.203 315.966 162.469 317.426 166.508 C 318.133 168.461 319.179 169.884 319.75 169.669 C 320.322 169.454 324.728 167.999 329.54 166.436 C 334.353 164.874 338.29 163.22 338.29 162.761 C 338.29 160.687 334.113 154.173 330.625 150.806 C 325.737 146.09 319.393 143.302 310.682 142.043 C 302.805 140.904 301.809 140.91 294.29 142.141 M 666.466 142.077 C 660.029 143.344 652.367 147.214 647.208 151.804 C 630.582 166.598 630.374 202.768 646.827 217.934 C 660.62 230.648 685.406 232.788 700.829 222.597 C 706.237 219.023 714.302 208.543 712.72 207.145 C 712.208 206.692 708.316 204.447 704.07 202.155 L 696.351 197.989 L 694.871 200.849 C 687.656 214.802 665.378 214.149 658.423 199.781 C 657.25 197.358 656.29 194.393 656.29 193.191 L 656.29 191.007 L 686.29 191.007 L 716.29 191.007 L 716.266 183.757 C 716.22 170.1 712.244 160.091 703.631 151.945 C 693.982 142.82 680.663 139.283 666.466 142.077 M 748.472 142.081 C 732.549 144.863 724.249 153.637 724.312 167.623 C 724.374 181.4 734.099 188.741 759.29 194.025 C 770.643 196.407 773.67 198.303 774.097 203.299 C 774.685 210.184 766.672 214.163 756.381 212.096 C 749.012 210.617 744.765 207.521 742.321 201.849 L 740.313 197.191 L 734.552 198.662 C 719.823 202.421 721.079 201.764 721.845 205.314 C 725.005 219.958 739.846 229.029 760.589 228.995 C 778.868 228.965 791.505 220.923 794.28 207.555 C 797.938 189.935 789.566 181.596 762.584 175.985 C 747.476 172.843 743.288 170.134 744.721 164.427 C 745.648 160.731 749.659 158.694 756.108 158.642 C 763.754 158.582 768.687 161.046 771.004 166.084 C 771.986 168.22 773.24 169.812 773.79 169.623 C 774.34 169.433 778.728 167.999 783.542 166.436 C 793.499 163.202 793.556 163.053 787.865 155.007 C 784.493 150.238 776.148 144.56 770.29 143.048 C 764.5 141.553 754.125 141.094 748.472 142.081 M 386.848 144.199 C 384.398 144.881 381.066 147.136 378.05 150.152 C 375.38 152.822 372.79 155.007 372.295 155.007 C 371.8 155.007 371.259 152.644 371.092 149.757 L 370.79 144.507 L 360.54 144.222 L 350.29 143.937 L 350.29 185.972 L 350.29 228.007 L 360.702 228.007 L 371.113 228.007 L 371.452 202.757 L 371.79 177.507 L 374.588 171.809 C 378.457 163.931 382.508 161.506 391.79 161.511 C 399.8 161.515 403.86 163.363 406.904 168.393 C 408.597 171.188 408.841 174.378 409.29 199.507 L 409.79 227.507 L 420.29 227.507 L 430.79 227.507 L 431.072 204.507 C 431.5 169.647 429.745 160.462 420.981 151.698 C 415.211 145.928 409.387 143.692 399.29 143.371 C 394.615 143.222 389.016 143.595 386.848 144.199 M 444.29 186.007 L 444.29 228.077 L 454.54 227.792 L 464.79 227.507 L 464.79 186.007 L 464.79 144.507 L 454.54 144.222 L 444.29 143.937 L 444.29 186.007 M 666.79 161.672 C 665.14 162.544 662.955 163.988 661.934 164.882 C 659.984 166.589 656.29 173.189 656.29 174.967 C 656.29 175.652 662.979 176.007 675.857 176.007 L 695.425 176.007 L 694.724 173.757 C 693.187 168.823 692.377 167.4 689.641 164.821 C 688.073 163.343 685.523 161.656 683.975 161.071 C 679.834 159.506 670.255 159.842 666.79 161.672" stroke="none" fill-rule="evenodd" style="paint-order: stroke; stroke-width: 3px; fill-rule: evenodd;"/>
</svg>