<svg xmlns="http://www.w3.org/2000/svg" width="256" height="256" viewBox="0 0 256 256" version="1.1"><path d="M 102.750 20.080 C 101.648 20.722, 101 22.310, 101 24.368 C 101 26.166, 100.324 29.912, 99.499 32.692 C 98.673 35.472, 95.819 41.066, 93.156 45.123 C 90.493 49.181, 83.663 57.225, 77.980 63 C 72.296 68.775, 65.539 76.722, 62.965 80.661 C 60.391 84.599, 57.075 90.841, 55.598 94.533 C 54.120 98.224, 53.044 101.378, 53.207 101.541 C 53.371 101.704, 54.669 102.130, 56.093 102.487 C 58.506 103.093, 58.828 102.742, 60.830 97.319 C 62.011 94.118, 64.220 89.380, 65.739 86.789 C 67.257 84.198, 70.909 79.182, 73.853 75.642 C 76.797 72.103, 82.197 66.813, 85.853 63.888 C 89.509 60.963, 96.585 54.482, 101.577 49.487 C 107.631 43.431, 111.596 38.480, 113.481 34.628 C 115.036 31.450, 116.521 26.634, 116.781 23.925 C 117.254 19, 117.254 19, 110.877 19.030 C 107.370 19.047, 103.713 19.519, 102.750 20.080 M 103.434 66.250 C 101.924 68.037, 99.639 71.750, 98.355 74.500 C 97.070 77.250, 96.015 80.737, 96.010 82.250 C 96.001 84.619, 96.401 85, 98.893 85 C 100.609 85, 102.033 84.356, 102.393 83.418 C 102.727 82.548, 103 80.338, 103 78.507 C 103 76.676, 103.853 72.438, 104.895 69.089 C 105.937 65.740, 106.652 63, 106.484 63 C 106.316 63, 104.943 64.463, 103.434 66.250 M 77.170 105.250 C 75.510 109.237, 73.610 114.655, 72.948 117.288 C 72.285 119.922, 71.996 122.329, 72.305 122.638 C 72.614 122.947, 73.347 122.904, 73.933 122.541 C 74.520 122.179, 75.008 121.121, 75.017 120.191 C 75.026 119.261, 76.594 114.675, 78.500 110 C 80.406 105.325, 81.974 100.713, 81.983 99.750 C 81.992 98.787, 81.592 98, 81.093 98 C 80.595 98, 78.829 101.263, 77.170 105.250 M 189.975 101.565 C 189.439 102.976, 189 104.753, 189 105.513 C 189 106.274, 187.842 110.562, 186.427 115.042 C 185.012 119.522, 184.082 123.415, 184.360 123.694 C 184.639 123.972, 185.333 123.912, 185.903 123.560 C 186.472 123.208, 188.074 119.325, 189.462 114.931 C 190.850 110.537, 192.271 105.155, 192.621 102.971 C 193.052 100.273, 192.886 99, 192.103 99 C 191.469 99, 190.512 100.154, 189.975 101.565 M 138.281 101.250 C 137.752 101.938, 135.711 107.037, 133.746 112.582 C 131.601 118.636, 130.499 123.189, 130.986 123.978 C 131.433 124.700, 132.406 125.051, 133.149 124.757 C 133.892 124.463, 136.221 119.408, 138.324 113.525 C 140.427 107.642, 141.904 102.192, 141.605 101.414 C 141.307 100.636, 140.654 100, 140.154 100 C 139.654 100, 138.811 100.563, 138.281 101.250 M 164.609 100.823 C 164.318 101.294, 162.487 106.080, 160.540 111.459 C 158.593 116.838, 157 122.085, 157 123.119 C 157 124.154, 157.579 125, 158.288 125 C 159.012 125, 161.199 120.519, 163.290 114.750 C 165.333 109.112, 167.003 103.739, 167.002 102.809 C 167.001 101.879, 166.581 100.859, 166.069 100.543 C 165.557 100.226, 164.900 100.353, 164.609 100.823 M 50.500 105.040 C 43.900 105.419, 37.375 105.818, 36 105.928 C 33.712 106.110, 33.669 106.194, 35.500 106.918 C 36.600 107.354, 43.470 108.017, 50.766 108.393 C 58.063 108.768, 64.813 109.350, 65.766 109.685 C 67.181 110.182, 67.270 110.046, 66.250 108.947 C 65.563 108.206, 65 106.790, 65 105.800 C 65 104.810, 64.438 104.079, 63.750 104.175 C 63.063 104.272, 57.100 104.661, 50.500 105.040 M 28.579 114.375 C 28.261 115.956, 28.007 122.931, 28.015 129.875 C 28.024 136.819, 28.361 142.995, 28.765 143.600 C 29.169 144.205, 30.483 145.218, 31.684 145.850 C 32.886 146.483, 35.248 147, 36.934 147 C 40 147, 40 147, 40 131.635 C 40 117.744, 40.193 116.024, 42.016 113.707 C 44.031 111.145, 44.031 111.145, 36.595 111.322 C 29.259 111.498, 29.151 111.539, 28.579 114.375 M 52.657 149.707 C 51.326 150.050, 50.975 150.782, 51.394 152.341 C 51.712 153.529, 51.979 156.360, 51.986 158.633 C 51.998 162.243, 52.317 162.827, 54.500 163.245 C 56.984 163.720, 57 163.674, 57 156.361 C 57 151.077, 56.647 149.033, 55.750 149.116 C 55.063 149.180, 53.671 149.446, 52.657 149.707 M 51 189.485 C 51 214.294, 51.047 214.880, 53.075 215.524 C 54.217 215.886, 55.410 215.924, 55.726 215.607 C 56.043 215.291, 56.520 204.065, 56.787 190.661 C 57.272 166.291, 57.272 166.291, 54.136 165.197 C 51 164.104, 51 164.104, 51 189.485" stroke="none" fill="#a69898" fill-rule="evenodd"/><path d="M 116.781 23.925 C 116.521 26.634, 115.036 31.450, 113.481 34.628 C 111.592 38.489, 107.644 43.412, 101.577 49.472 C 96.585 54.459, 89.800 60.687, 86.500 63.312 C 83.200 65.938, 77.672 71.329, 74.216 75.293 C 70.650 79.383, 66.243 85.960, 64.026 90.500 C 61.877 94.900, 59.837 99.513, 59.492 100.750 C 58.929 102.772, 59.218 103, 62.339 103 C 65.324 103, 65.739 103.282, 65.288 105.005 C 65 106.108, 65.274 107.626, 65.898 108.377 C 66.806 109.471, 66.405 109.869, 63.891 110.372 C 62.163 110.717, 57.014 111, 52.448 111 C 44.645 111, 44.019 111.160, 42.048 113.666 C 40.092 116.153, 39.969 117.379, 40.225 131.916 C 40.500 147.500, 40.500 147.500, 49 147.783 C 57.500 148.066, 57.500 148.066, 57.178 155.911 C 56.855 163.756, 56.855 163.756, 68.178 165.863 C 74.405 167.023, 84.675 168.628, 91 169.430 C 97.325 170.233, 110.825 171.406, 121 172.037 C 131.175 172.668, 144.900 172.891, 151.500 172.532 C 158.100 172.174, 168 171.237, 173.500 170.450 C 179 169.662, 186.918 168.289, 191.096 167.398 C 198.692 165.777, 198.692 165.777, 199.346 138.639 C 199.880 116.451, 199.726 110.223, 198.502 104.500 C 197.678 100.650, 195.258 93.900, 193.125 89.500 C 190.991 85.100, 187.503 79.193, 185.373 76.373 C 183.243 73.554, 178.875 68.154, 175.666 64.373 C 172.107 60.179, 167.874 53.462, 164.808 47.140 C 161.454 40.226, 159.452 34.571, 158.787 30.140 C 158.239 26.488, 157.454 22.825, 157.042 22 C 156.526 20.965, 153.999 20.308, 148.897 19.881 C 144.829 19.540, 136.045 19.203, 129.377 19.131 C 117.254 19, 117.254 19, 116.781 23.925 M 151.672 60.043 C 150.159 61.234, 148.796 63.570, 148.408 65.640 C 148.041 67.594, 148.270 70.957, 148.916 73.113 C 149.562 75.269, 151.487 78.624, 153.194 80.568 C 154.900 82.512, 157.558 84.754, 159.099 85.551 C 160.640 86.348, 163.645 87, 165.776 87 C 168.518 87, 170.254 86.342, 171.711 84.750 C 172.843 83.513, 174.092 81.440, 174.486 80.145 C 174.879 78.850, 174.653 75.831, 173.982 73.437 C 173.312 71.043, 171.157 67.206, 169.192 64.912 C 167.228 62.617, 164.146 60.123, 162.343 59.370 C 160.540 58.616, 157.985 58, 156.667 58 C 155.348 58, 153.101 58.919, 151.672 60.043 M 103.434 66.250 C 101.924 68.037, 99.639 71.750, 98.355 74.500 C 97.070 77.250, 96.015 80.737, 96.010 82.250 C 96.001 84.619, 96.401 85, 98.893 85 C 100.609 85, 102.033 84.356, 102.393 83.418 C 102.727 82.548, 103 80.338, 103 78.507 C 103 76.676, 103.853 72.438, 104.895 69.089 C 105.937 65.740, 106.652 63, 106.484 63 C 106.316 63, 104.943 64.463, 103.434 66.250 M 77.384 96.765 C 76.771 97.169, 75.317 99.378, 74.153 101.674 C 72.989 103.970, 70.879 109.298, 69.463 113.515 C 67.069 120.646, 67 121.351, 68.468 123.591 C 69.336 124.916, 70.679 126, 71.452 126 C 72.225 126, 73.552 125.305, 74.402 124.455 C 75.252 123.605, 76.450 121.018, 77.064 118.705 C 77.678 116.392, 79.534 111.400, 81.188 107.611 C 83.652 101.965, 84 100.296, 83.119 98.361 C 82.527 97.062, 81.246 96.007, 80.271 96.015 C 79.297 96.024, 77.998 96.361, 77.384 96.765 M 102.627 100.250 C 101.847 101.487, 99.727 107.077, 97.917 112.672 C 95.156 121.205, 94.837 123.098, 95.935 124.422 C 96.656 125.290, 98.260 126, 99.500 126 C 100.740 126, 102.198 125.438, 102.740 124.750 C 103.282 124.063, 105.348 118.607, 107.331 112.626 C 110.053 104.421, 110.691 101.292, 109.934 99.876 C 109.373 98.828, 107.852 98, 106.488 98 C 105.043 98, 103.467 98.918, 102.627 100.250 M 136.127 99.347 C 135.512 100.088, 133.203 105.562, 130.996 111.511 C 127.259 121.585, 127.089 122.486, 128.515 124.663 C 129.357 125.948, 130.866 127, 131.868 127 C 132.870 127, 134.365 126.212, 135.189 125.250 C 136.014 124.287, 138.333 118.854, 140.344 113.175 C 142.355 107.496, 144 102.466, 144 101.996 C 144 101.527, 143.293 100.436, 142.429 99.571 C 141.564 98.707, 140.044 98, 139.051 98 C 138.058 98, 136.742 98.606, 136.127 99.347 M 189.172 99.750 C 188.678 100.713, 187.464 104.875, 186.475 109 C 185.485 113.125, 184.053 117.996, 183.293 119.823 C 182.533 121.651, 182.180 123.991, 182.507 125.022 C 182.834 126.054, 184.012 127.186, 185.123 127.539 C 186.390 127.941, 187.866 127.526, 189.082 126.425 C 190.149 125.460, 191.864 121.932, 192.894 118.585 C 193.924 115.238, 195.306 109.890, 195.965 106.700 C 196.897 102.186, 196.896 100.579, 195.959 99.450 C 195.297 98.653, 193.701 98, 192.413 98 C 191.124 98, 189.666 98.787, 189.172 99.750 M 163.195 100.692 C 162.678 101.686, 160.587 107.075, 158.548 112.666 C 155.528 120.945, 155.047 123.219, 155.955 124.916 C 156.618 126.154, 158.061 127, 159.512 127 C 160.959 127, 162.530 126.083, 163.368 124.750 C 164.145 123.513, 166.210 118.561, 167.957 113.748 C 169.703 108.934, 170.990 103.759, 170.816 102.248 C 170.554 99.972, 169.953 99.447, 167.316 99.192 C 165.045 98.972, 163.864 99.401, 163.195 100.692 M 56.737 194.250 C 56.427 206.488, 56.246 216.571, 56.336 216.659 C 56.426 216.746, 62.350 218.001, 69.500 219.447 C 76.650 220.893, 87.939 222.712, 94.587 223.490 C 101.234 224.268, 113.609 225.205, 122.087 225.573 C 131.394 225.976, 143.442 225.772, 152.500 225.058 C 160.750 224.407, 174.250 222.738, 182.500 221.349 C 190.750 219.960, 197.702 218.623, 197.950 218.378 C 198.197 218.134, 198.591 209.848, 198.824 199.967 C 199.057 190.085, 198.964 182, 198.617 182 C 198.271 182, 193.602 182.652, 188.243 183.448 C 182.885 184.244, 171.750 185.424, 163.500 186.070 C 154.864 186.745, 142.628 186.972, 134.659 186.603 C 127.046 186.251, 115.571 185.279, 109.159 184.444 C 102.747 183.609, 92.490 181.807, 86.366 180.439 C 80.243 179.071, 71.271 176.613, 66.429 174.976 C 61.587 173.339, 57.552 172, 57.464 172 C 57.375 172, 57.048 182.012, 56.737 194.250 M 187.500 224.060 C 183.100 225.060, 174.325 226.634, 168 227.557 C 161.675 228.479, 148.175 229.597, 138 230.041 C 119.500 230.847, 119.500 230.847, 140 230.432 C 151.275 230.204, 165.225 229.346, 171 228.525 C 176.775 227.705, 184.875 226.307, 189 225.418 C 193.125 224.530, 196.928 223.397, 197.450 222.902 C 198.036 222.345, 197.845 222.046, 196.950 222.121 C 196.153 222.187, 191.900 223.060, 187.500 224.060" stroke="none" fill="#f30b33" fill-rule="evenodd"/><path d="M 109.863 1.009 C 106.762 1.499, 100.462 2.860, 95.863 4.033 C 91.263 5.206, 83.684 7.744, 79.019 9.673 C 74.355 11.603, 67.601 14.897, 64.012 16.993 C 60.422 19.090, 54.563 22.936, 50.992 25.540 C 47.422 28.144, 40.832 34.007, 36.349 38.570 C 31.866 43.133, 25.238 51.312, 21.620 56.746 C 18.002 62.180, 13.505 69.973, 11.626 74.063 C 9.747 78.153, 7.033 85.248, 5.596 89.829 C 4.159 94.410, 2.312 102.006, 1.491 106.710 C 0.671 111.414, 0.001 121.166, 0.003 128.381 C 0.005 135.743, 0.691 145.450, 1.567 150.500 C 2.426 155.450, 4.433 163.416, 6.029 168.203 C 7.625 172.989, 10.806 180.636, 13.098 185.195 C 15.390 189.754, 19.521 196.863, 22.277 200.992 C 25.034 205.121, 32.061 213.249, 37.895 219.053 C 43.728 224.856, 52.100 231.972, 56.500 234.865 C 60.900 237.759, 68.100 241.839, 72.500 243.933 C 76.900 246.027, 84.100 248.886, 88.500 250.288 C 92.900 251.689, 98.975 253.435, 102 254.168 C 105.693 255.062, 114.401 255.497, 128.500 255.492 C 148.315 255.485, 150.054 255.330, 159.322 252.747 C 164.724 251.241, 172.599 248.629, 176.822 246.943 C 181.045 245.257, 188.080 241.783, 192.456 239.223 C 196.832 236.663, 203.582 232.038, 207.456 228.946 C 211.330 225.853, 217.718 219.921, 221.652 215.762 C 225.585 211.603, 231.038 204.889, 233.769 200.842 C 236.500 196.795, 240.623 189.728, 242.931 185.138 C 245.239 180.548, 248.428 172.812, 250.017 167.946 C 251.607 163.081, 253.478 155.478, 254.175 151.051 C 254.871 146.623, 255.792 143, 256.221 143 C 256.649 143, 257 135.998, 257 127.441 C 257 118.884, 256.611 112.123, 256.135 112.417 C 255.659 112.711, 254.987 110.549, 254.642 107.613 C 254.297 104.677, 252.861 98.276, 251.451 93.387 C 250.040 88.499, 247.147 80.545, 245.020 75.711 C 242.894 70.876, 238.099 62.326, 234.365 56.711 C 230.334 50.648, 223.851 42.800, 218.406 37.393 C 213.363 32.384, 205.137 25.544, 200.127 22.193 C 195.117 18.841, 187.660 14.506, 183.555 12.558 C 179.451 10.611, 172.809 7.923, 168.796 6.585 C 164.783 5.248, 158.125 3.412, 154 2.506 C 149.496 1.517, 140.309 0.711, 131 0.488 C 122.475 0.285, 112.963 0.519, 109.863 1.009 M 102.500 14.945 C 101.400 15.396, 99.673 16.684, 98.662 17.808 C 97.558 19.036, 96.510 22.374, 96.036 26.176 C 95.602 29.654, 94.537 34.192, 93.670 36.260 C 92.803 38.328, 90.400 42.571, 88.331 45.689 C 86.261 48.807, 80.905 55.281, 76.430 60.075 C 71.954 64.869, 66.219 71.910, 63.685 75.721 C 61.152 79.532, 58.143 84.833, 57 87.501 C 55.856 90.168, 55.158 92.970, 55.449 93.727 C 55.739 94.484, 55.532 94.829, 54.989 94.493 C 54.445 94.157, 53.931 94.696, 53.848 95.691 C 53.764 96.686, 53.591 97.950, 53.463 98.500 C 53.335 99.050, 53.179 100.008, 53.115 100.628 C 53.039 101.375, 50.038 101.743, 44.250 101.717 C 39.438 101.695, 33.867 102.217, 31.871 102.876 C 29.875 103.536, 27.400 105.005, 26.371 106.140 C 24.719 107.963, 24.461 110.302, 24.169 126.099 C 23.838 143.992, 23.838 143.992, 26.842 146.996 C 29.172 149.326, 30.817 150.034, 34.173 150.153 C 36.553 150.238, 41.087 150.192, 44.250 150.052 C 50 149.798, 50 149.798, 50.170 157.149 C 50.263 161.192, 50.261 166.300, 50.164 168.500 C 50.068 170.700, 49.560 182.422, 49.036 194.549 C 48.511 206.676, 48.348 217.614, 48.673 218.856 C 49.029 220.220, 49.799 220.907, 50.619 220.593 C 51.366 220.306, 51.869 220.571, 51.738 221.181 C 51.604 221.804, 55.441 223.302, 60.500 224.602 C 65.450 225.873, 76.475 228.170, 85 229.705 C 99.827 232.376, 101.845 232.495, 131.500 232.457 C 155.447 232.426, 164.775 232.042, 172.500 230.768 C 178 229.860, 187.500 227.943, 193.611 226.508 C 204.722 223.898, 204.722 223.898, 205.376 185.699 C 205.735 164.689, 206.086 137.825, 206.155 126 C 206.238 111.745, 205.860 102.815, 205.032 99.500 C 204.346 96.750, 201.840 90.450, 199.464 85.500 C 197.001 80.370, 192.426 73.210, 188.822 68.848 C 185.345 64.639, 179.882 58.114, 176.683 54.348 C 173.484 50.581, 169.301 44.260, 167.387 40.301 C 164.888 35.127, 163.796 31.349, 163.508 26.877 C 163.186 21.876, 162.612 20.157, 160.587 18.133 C 158.748 16.293, 156.505 15.418, 152.284 14.891 C 149.103 14.494, 137.050 14.159, 125.500 14.148 C 113.950 14.136, 103.600 14.495, 102.500 14.945" stroke="none" fill="#333e5f" fill-rule="evenodd"/><path d="M 167.042 51.927 C 168.780 55.188, 172.744 60.868, 175.851 64.551 C 178.958 68.234, 183.243 73.554, 185.373 76.373 C 187.503 79.193, 190.991 85.100, 193.125 89.500 C 195.258 93.900, 197.678 100.650, 198.502 104.500 C 199.727 110.226, 199.880 116.456, 199.344 138.725 C 198.688 165.950, 198.688 165.950, 201.844 165.045 C 204.281 164.346, 205 164.449, 205 165.499 C 205 166.336, 202.983 167.270, 199.750 167.930 C 196.863 168.520, 188.650 169.876, 181.500 170.944 C 174.350 172.012, 163.100 173.435, 156.500 174.107 C 149.900 174.780, 135.950 175.328, 125.500 175.326 C 113.175 175.324, 102.109 174.724, 94.001 173.619 C 87.126 172.681, 76.657 170.821, 70.735 169.484 C 64.814 168.147, 59.170 166.626, 58.194 166.104 C 56.628 165.266, 56.466 165.555, 56.817 168.562 C 57.212 171.942, 57.300 171.997, 67.858 175.393 C 73.711 177.275, 82.793 179.738, 88.040 180.866 C 93.286 181.994, 102.808 183.602, 109.198 184.440 C 115.589 185.277, 127.046 186.251, 134.659 186.603 C 142.628 186.972, 154.864 186.745, 163.500 186.070 C 171.750 185.424, 182.885 184.244, 188.243 183.448 C 193.602 182.652, 198.271 182, 198.617 182 C 198.964 182, 199.057 190.100, 198.823 200 C 198.435 216.434, 198.546 218, 200.097 218 C 201.582 218, 201.873 216.276, 202.416 204.250 C 202.758 196.688, 203.346 186.675, 203.725 182 C 204.356 174.194, 204.465 173.867, 205.056 178 C 205.410 180.475, 205.678 171.250, 205.652 157.500 C 205.621 141.147, 205.414 136.305, 205.052 143.500 C 204.572 153.066, 204.409 151.305, 203.802 130 C 203.280 111.637, 202.688 104.122, 201.440 100 C 200.524 96.975, 198.416 91.800, 196.755 88.500 C 195.093 85.200, 192.480 80.671, 190.946 78.435 C 189.413 76.199, 184.467 70.349, 179.956 65.435 C 175.444 60.521, 170.170 54.138, 168.235 51.250 C 166.300 48.362, 164.529 46, 164.300 46 C 164.070 46, 165.304 48.667, 167.042 51.927 M 154 59.272 C 154 59.737, 153.582 59.860, 153.072 59.544 C 152.562 59.229, 151.854 59.884, 151.500 61 C 151.146 62.116, 150.444 62.774, 149.939 62.463 C 149.435 62.151, 149.291 62.594, 149.618 63.448 C 149.946 64.302, 149.828 65.001, 149.357 65.003 C 148.886 65.005, 148.466 66.592, 148.424 68.531 C 148.373 70.892, 148.646 71.634, 149.252 70.778 C 149.853 69.929, 150.011 70.413, 149.723 72.220 C 149.484 73.716, 149.627 74.731, 150.040 74.475 C 150.453 74.220, 151.064 74.725, 151.398 75.596 C 151.733 76.467, 151.710 77.659, 151.349 78.245 C 150.976 78.848, 151.161 79.018, 151.777 78.638 C 152.374 78.269, 153.461 78.762, 154.191 79.733 C 154.922 80.705, 156.542 82.370, 157.791 83.433 C 159.040 84.497, 162.186 85.623, 164.781 85.937 C 168.682 86.409, 169.847 86.154, 171.500 84.465 C 172.600 83.342, 173.625 82.108, 173.777 81.722 C 173.930 81.336, 174.322 80.326, 174.648 79.476 C 174.974 78.626, 174.677 75.917, 173.987 73.455 C 173.298 70.994, 170.984 66.991, 168.844 64.560 C 166.704 62.129, 163.501 59.669, 161.726 59.095 C 159.952 58.520, 157.488 58.135, 156.250 58.238 C 155.012 58.341, 154 58.806, 154 59.272" stroke="none" fill="#373333" fill-rule="evenodd"/><path d="M 103.908 15.153 C 102.060 15.531, 99.750 16.826, 98.774 18.031 C 97.783 19.254, 97 21.870, 97 23.954 C 97 26.007, 96.113 30.265, 95.029 33.415 C 93.945 36.565, 91.039 42.148, 88.572 45.822 C 86.104 49.495, 79.971 56.983, 74.942 62.463 C 69.914 67.943, 63.819 75.809, 61.400 79.942 C 58.980 84.076, 57 87.907, 57 88.456 C 57 89.005, 58.687 86.586, 60.750 83.080 C 62.813 79.573, 69.953 70.976, 76.617 63.975 C 83.282 56.974, 90.236 49.064, 92.071 46.397 C 93.906 43.730, 96.430 39.062, 97.680 36.024 C 98.930 32.986, 99.963 28.862, 99.976 26.861 C 99.990 24.796, 100.828 22.201, 101.914 20.861 C 103.828 18.500, 103.828 18.500, 128.145 18.862 C 141.519 19.062, 153.586 19.652, 154.960 20.175 C 156.335 20.698, 157.799 21.659, 158.214 22.313 C 158.630 22.966, 158.976 25.424, 158.985 27.775 C 158.993 30.126, 159.902 34.616, 161.004 37.752 C 162.106 40.887, 164.975 46.389, 167.379 49.977 C 169.783 53.564, 175.442 60.521, 179.954 65.435 C 184.466 70.349, 189.413 76.199, 190.946 78.435 C 192.480 80.671, 195.093 85.200, 196.755 88.500 C 198.416 91.800, 200.524 96.975, 201.440 100 C 202.688 104.122, 203.280 111.637, 203.802 130 C 204.458 153.035, 204.537 153.783, 205.114 142.500 C 205.452 135.900, 205.790 124.857, 205.864 117.960 C 205.954 109.676, 205.489 103.397, 204.494 99.460 C 203.666 96.182, 200.996 89.450, 198.561 84.500 C 196.126 79.550, 191.623 72.575, 188.556 69 C 185.489 65.425, 180.091 58.953, 176.562 54.618 C 173.033 50.283, 168.716 43.835, 166.970 40.288 C 164.876 36.034, 163.615 31.741, 163.264 27.670 C 162.972 24.276, 162.329 20.717, 161.836 19.760 C 161.344 18.804, 159.717 17.391, 158.220 16.622 C 156.181 15.574, 149.466 15.129, 131.383 14.845 C 118.119 14.636, 105.755 14.775, 103.908 15.153 M 76.157 98.527 C 75.064 99.917, 72.759 104.952, 71.035 109.716 C 69.312 114.479, 68.036 119.755, 68.201 121.439 C 68.440 123.891, 69.014 124.560, 71.086 124.801 C 72.508 124.966, 74.159 124.513, 74.755 123.795 C 75.351 123.077, 76.104 121.141, 76.429 119.494 C 76.976 116.714, 76.923 116.746, 75.690 119.940 C 74.960 121.831, 73.831 123.556, 73.181 123.773 C 72.453 124.016, 72 123.050, 72 121.258 C 72 119.659, 73.069 115.234, 74.375 111.425 C 75.682 107.616, 77.560 102.823, 78.550 100.772 C 80.077 97.609, 80.587 97.231, 81.925 98.272 C 83.315 99.356, 83.338 99.294, 82.128 97.750 C 81.373 96.787, 80.168 96, 79.450 96 C 78.732 96, 77.251 97.137, 76.157 98.527 M 103.311 99.199 C 102.752 99.915, 100.650 105.362, 98.641 111.305 C 95.752 119.851, 95.213 122.529, 96.062 124.115 C 96.809 125.513, 97.947 126.026, 99.817 125.810 C 102.256 125.528, 102.837 124.544, 106.207 115 C 108.245 109.225, 109.820 103.150, 109.707 101.500 C 109.540 99.084, 108.997 98.442, 106.914 98.199 C 105.492 98.034, 103.871 98.484, 103.311 99.199 M 136.803 99.250 C 135.934 99.938, 133.598 104.956, 131.612 110.402 C 129.625 115.847, 128 121.370, 128 122.673 C 128 124.240, 128.860 125.435, 130.537 126.199 C 132.561 127.121, 133.361 127.066, 134.494 125.927 C 135.275 125.142, 137.508 120.090, 139.457 114.700 C 141.406 109.311, 143 103.888, 143 102.650 C 143 101.413, 142.460 99.860, 141.800 99.200 C 141.140 98.540, 140.101 98, 139.491 98 C 138.881 98, 137.672 98.563, 136.803 99.250 M 189.625 99.518 C 188.731 100.412, 188.045 102.123, 188.100 103.321 C 188.194 105.375, 188.238 105.362, 188.872 103.095 C 189.243 101.772, 190.301 100.213, 191.225 99.630 C 192.148 99.047, 193.154 98.821, 193.460 99.126 C 193.765 99.432, 192.927 103.974, 191.596 109.220 C 190.265 114.466, 188.432 120.199, 187.521 121.960 C 186.412 124.104, 185.364 124.970, 184.349 124.580 C 183.410 124.220, 182.989 124.474, 183.244 125.249 C 183.469 125.937, 184.831 126.640, 186.270 126.811 C 188.317 127.054, 189.219 126.477, 190.420 124.154 C 191.264 122.522, 192.892 117.770, 194.038 113.594 C 195.184 109.418, 195.981 104.314, 195.810 102.251 C 195.567 99.310, 195.041 98.435, 193.375 98.197 C 192.206 98.030, 190.518 98.625, 189.625 99.518 M 106.497 100.187 C 106.228 100.909, 104.430 106.202, 102.503 111.949 C 100.164 118.921, 99.331 122.731, 99.999 123.399 C 100.630 124.030, 101.324 124.049, 101.876 123.450 C 102.357 122.928, 104.157 118.224, 105.876 112.998 C 107.594 107.771, 109 102.735, 109 101.807 C 109 100.878, 108.547 99.838, 107.993 99.496 C 107.439 99.153, 106.766 99.464, 106.497 100.187 M 138.205 100.309 C 137.687 100.964, 135.629 105.956, 133.632 111.402 C 131.634 116.847, 130 121.855, 130 122.529 C 130 123.203, 130.645 124.290, 131.433 124.944 C 132.584 125.900, 133.162 125.677, 134.366 123.817 C 135.192 122.543, 137.247 117.701, 138.933 113.059 C 140.620 108.416, 142 103.626, 142 102.416 C 142 101.205, 141.358 99.968, 140.573 99.666 C 139.788 99.365, 138.723 99.655, 138.205 100.309 M 30.402 103.905 C 28.148 104.929, 26.024 106.495, 25.682 107.385 C 25.341 108.276, 24.755 116.172, 24.380 124.932 C 23.858 137.140, 24.008 141.606, 25.022 144.053 C 25.854 146.063, 27.566 147.756, 29.640 148.623 C 31.672 149.472, 36.303 149.962, 41.718 149.900 C 46.548 149.845, 51.625 149.472, 53 149.071 C 54.576 148.612, 51.378 148.160, 44.348 147.850 C 36.173 147.490, 32.503 146.904, 30.598 145.656 C 28 143.954, 28 143.954, 28 127.477 C 28 111, 28 111, 43.250 110.985 C 51.638 110.976, 59.089 110.596, 59.809 110.139 C 60.585 109.647, 57.129 109.045, 51.309 108.660 C 45.914 108.303, 39.273 108.008, 36.550 108.005 C 32.844 108.001, 31.887 107.713, 32.740 106.860 C 33.367 106.233, 39.195 105.362, 45.690 104.924 C 52.186 104.486, 58.850 104.033, 60.500 103.917 C 62.240 103.795, 60.979 103.393, 57.500 102.962 C 54.200 102.552, 47.675 102.178, 43 102.130 C 36.702 102.066, 33.438 102.526, 30.402 103.905 M 50.115 159.043 C 50 163.585, 50 163.585, 58.750 166.267 C 63.563 167.741, 72 169.830, 77.500 170.909 C 83 171.988, 92 173.430, 97.500 174.115 C 103 174.799, 115.825 175.350, 126 175.339 C 136.175 175.327, 149.900 174.771, 156.500 174.102 C 163.100 173.433, 174.350 172.012, 181.500 170.944 C 188.650 169.876, 196.862 168.520, 199.750 167.930 C 202.878 167.292, 205 166.327, 205 165.543 C 205 164.512, 203.436 164.642, 197.750 166.144 C 193.762 167.198, 185.100 168.966, 178.500 170.073 C 171.900 171.181, 159.075 172.354, 150 172.680 C 140.616 173.018, 126.168 172.761, 116.500 172.085 C 107.150 171.430, 93.018 169.993, 85.095 168.891 C 77.173 167.789, 66.689 166.067, 61.798 165.063 C 56.908 164.060, 52.632 162.966, 52.297 162.631 C 51.963 162.296, 51.361 160.330, 50.959 158.261 C 50.230 154.500, 50.230 154.500, 50.115 159.043 M 49.753 188.500 C 49.343 197.300, 49.005 207.458, 49.003 211.073 C 49 217.646, 49 217.646, 63.750 221.259 C 71.862 223.247, 83 225.565, 88.500 226.409 C 94 227.254, 105.700 228.432, 114.500 229.027 C 123.300 229.622, 135.900 229.831, 142.500 229.492 C 149.100 229.154, 159.675 228.209, 166 227.393 C 172.325 226.576, 183.041 224.758, 189.814 223.352 C 196.586 221.945, 202.368 221.035, 202.662 221.329 C 202.957 221.623, 200.826 222.568, 197.927 223.429 C 195.029 224.290, 188.122 225.866, 182.579 226.932 C 177.035 227.998, 166.681 229.414, 159.570 230.078 C 151.404 230.842, 139.061 231.072, 126.070 230.703 C 114.756 230.382, 99.875 229.400, 93 228.522 C 86.125 227.643, 76 226.022, 70.500 224.920 C 65 223.818, 59.600 222.689, 58.500 222.411 C 56.657 221.944, 56.641 221.992, 58.290 223.024 C 59.274 223.640, 65.349 225.262, 71.790 226.628 C 78.230 227.994, 88 229.770, 93.500 230.573 C 99 231.377, 111.375 232.316, 121 232.660 C 131.470 233.034, 144.525 232.813, 153.500 232.109 C 161.750 231.461, 172.550 230.254, 177.500 229.426 C 182.450 228.598, 190.550 226.897, 195.500 225.647 C 204.500 223.375, 204.500 223.375, 204.625 198.437 C 204.702 183.194, 204.445 175.444, 203.963 178.500 C 203.530 181.250, 203.133 186.875, 203.082 191 C 203.031 195.125, 202.704 202.819, 202.354 208.097 C 201.718 217.694, 201.718 217.694, 197.109 218.848 C 194.574 219.482, 187.323 220.875, 180.995 221.942 C 174.667 223.009, 163.417 224.421, 155.995 225.080 C 147.528 225.832, 135.235 226.048, 123 225.659 C 112.275 225.319, 98.325 224.372, 92 223.554 C 85.675 222.737, 73.871 220.643, 65.769 218.901 C 51.038 215.735, 51.038 215.735, 50.769 194.117 C 50.500 172.500, 50.500 172.500, 49.753 188.500" stroke="none" fill="#000000" fill-rule="evenodd"/></svg>